**ABCDEFGHIJKLMNOPQRSTUVWXYZabcdefghijklmnopqrstuvwxyz**************************
**PARASOLID !"#$%&'()*+,-./:;<=>?@[\]^_`{|}~0123456789**************************
**PART1;
MC=AMD64;
MC_MODEL=Intel64 Family 6 Model 60 Stepping 3, GenuineIntel;
MC_ID=unknown;
OS=Windows_NT;
OS_RELEASE=unknown;
FRU=Parasolid Version 29.0, build 195, 12- 2-2016;
APPL=SOLIDWORKS 2017-2017033;
SITE=;
USER=unknown;
FORMAT=text;
GUISE=transmit;
KEY=Rims;
FILE=Rims.x_t;
DATE=Sun Sep 17 22:06:24 2017;
**PART2;
SCH=SCH_2900195_28101;
USFLD_SIZE=0;
**PART3;
**END_OF_HEADER*****************************************************************
T51 : TRANSMIT FILE created by modeller version 290019523 SCH_2900195_28101_1300
6203 0 12 33 CCCCCCI4 mesh1006 0 I8 polyline1008 0 CCCCCCCDI5 owner1040 0 CCCCCC
I13 boundary_mesh1006 0 I17 boundary_polyline1008 0 CCCA16 index_map_offset0 0 1
 dA9 index_map82 0 A17 node_id_index_map82 0 A20 schema_embedding_map82 0 A5 chi
ld12 0 A14 lowest_node_id0 0 1 dZ1 150 0 2 0 0 0 0 0 0 1e3 1e-8 0 3 0 1 0 1 1 4
 5 6 0 0 0 7 8 0 0 0 0 0 0 0 70 11 CI9 list_type0 0 1 uI10 notransmit0 0 1 lCCCD
CCDI12 finger_index0 0 1 dI12 finger_block1012 0 CZ2 0 4 T1 0 0 2 20 1 9 9 13 25
5 4 29 0 1 0 10 0 0 11 0 54 255 5 104 0 12 13 0 0 +0 .03 0 0 1 0 .23 .03 0 0 1 3
1 255 6 74 0 8 14 0 0 -0 0 0 0 1 0 0 0 1 .23 19 8 CCCCCCCA5 owner12 0 Z7 7 0 1 1
1 0 15 V0 16 255 8 71 0 ?16 0 17 6 0 0 1 17 255 16 0 18 16 16 0 19 8 0 0 +16 17
 65 0 ?20 8 21 14 0 0 1 17 20 0 22 20 20 0 23 17 0 0 +16 21 59 0 ?24 17 25 26 0
 0 1 31 14 68 0 17 26 6 0 -0 .176 0 0 1 0 0 0 1 .26 31 26 62 0 21 27 14 0 +0 .03
 0 0 1 0 0 0 1 .26 31 27 56 0 25 0 26 0 +0 .206 0 0 1 0 0 0 1 .23 16 25 53 0 ?28
 21 0 27 0 0 1 17 28 0 29 28 28 0 30 25 0 0 +15 255 29 54 0 28 31 0 17 30 0 32 3
0 30 0 28 25 0 0 -15 32 86 0 30 33 0 14 255 33 84 34 ?12 35 36 4 13 +0 0 12 35 1
5 81 255 1 34 146 37 33 38 0 0 39 40 14 12 97 39 ?0 33 41 4 5 +0 0 0 33 15 14 35
 16 42 ?33 31 18 4 43 -0 0 33 31 15 15 36 85 0 23 33 32 54 13 91 0 33 44 5 0 +0
 .176 0 0 1 0 .23 .03 0 0 1 13 15 8 0 0 0 0 0 0 7 10 14 10 25 45 ?31 0 22 4 44 -
0 0 31 0 15 81 1 45 149 37 10 46 0 42 47 48 14 31 1 47 ?35 10 29 4 49 +0 0 35 10
 15 15 22 66 0 20 10 50 51 255 44 28 0 10 43 13 0 -0 .206 0 0 -1 0 .26 0 0 -1 50
 255 43 22 0 35 49 44 0 +0 0 0 0 1 0 0 0 1 50 49 2 0 31 0 43 0 +0 .206 0 0 1 0 0
 0 1 15 50 60 0 24 10 0 17 24 0 50 24 24 0 51 21 0 0 +17 51 0 52 51 51 0 24 21 0
 0 -15 52 99 0 51 12 0 81 1 47 150 37 31 53 0 45 0 54 80 255 1 37 55 56 9000 1 1
 1 1 1 1 1 1 0 FFFFTFTFFFFFFF1 81 1 53 130 57 31 0 47 46 58 59 82 255 1 54 99942
509 80 1 57 0 60 8001 0 0 0 0 3 5 0 0 0 FFFFTFTFFFFFFF2 81 1 46 129 57 10 0 45 0
 53 61 81 1 58 131 57 35 0 42 53 38 62 83 255 3 59 .792156862745098 .81960784313
7255 .933333333333333 81 1 42 148 37 35 58 0 39 45 63 81 1 38 132 57 33 0 34 58
 64 65 83 3 62 .792156862745098 .819607843137255 .933333333333333 81 1 64 133 57
 12 0 39 38 0 66 83 3 65 .792156862745098 .819607843137255 .933333333333333 81 1
 39 147 37 12 64 0 34 42 67 83 3 66 .792156862745098 .819607843137255 .933333333
333333 82 1 67 107872365 82 1 63 101646445 83 3 61 .792156862745098 .81960784313
7255 .933333333333333 79 255 15 60 SDL/TYSA_COLOUR79 14 56 SWEntUnchanged82 1 48
 101908589 17 23 0 36 23 23 0 20 17 0 0 -15 18 72 0 16 35 0 15 41 98 0 19 12 52
 17 19 0 41 19 19 0 16 8 0 0 -82 1 40 106627181 19 11 30 0 1 0 7 4 S0 74 4 CI16
 index_map_offset0 0 1 dCCZ20 9 2 0 0 47 64 0 0 0 0 0 0 0 0 0 0 0 0 0 0 0 0 0 0
 1 0 
