**ABCDEFGHIJKLMNOPQRSTUVWXYZabcdefghijklmnopqrstuvwxyz**************************
**PARASOLID !"#$%&'()*+,-./:;<=>?@[\]^_`{|}~0123456789**************************
**PART1;
MC=AMD64;
MC_MODEL=Intel64 Family 6 Model 60 Stepping 3, GenuineIntel;
MC_ID=unknown;
OS=Windows_NT;
OS_RELEASE=unknown;
FRU=Parasolid Version 29.0, build 195, 12- 2-2016;
APPL=SOLIDWORKS 2017-2017033;
SITE=;
USER=unknown;
FORMAT=text;
GUISE=transmit;
KEY=CAM_GRC18_Mounts;
FILE=CAM_GRC18_Mounts.x_t;
DATE=Mon Mar 05 15:25:04 2018;
**PART2;
SCH=SCH_2900195_28101;
USFLD_SIZE=0;
**PART3;
**END_OF_HEADER*****************************************************************
T51 : TRANSMIT FILE created by modeller version 290019523 SCH_2900195_28101_1300
6203 0 10 19 CCCCCCCI4 mesh1006 0 I8 polyline1008 0 CCCCCCCCCCZ1 5 2 3 0 0 0 0 0
 0 0 1e3 1e-8 0 0 0 1 0 1 4 81 255 2 2 5 5 1 0 0 0 0 0 0 70 11 CI9 list_type0 0
 1 uI10 notransmit0 0 1 lCCCDCCDI12 finger_index0 0 1 dI12 finger_block1012 0 CZ
3 0 4 T1 0 0 1 20 1 6 6 11 255 4 3 0 1 7 8 1 9 0 0 0 12 33 CCCCCCI4 mesh1006 0 I
8 polyline1008 0 CCCCCCCDI5 owner1040 0 CCCCCCI13 boundary_mesh1006 0 I17 bounda
ry_polyline1008 0 CCCA16 index_map_offset0 0 1 dA9 index_map82 0 A17 node_id_ind
ex_map82 0 A20 schema_embedding_map82 0 A5 child12 0 A14 lowest_node_id0 0 1 dZ7
 1250 10 11 0 0 0 0 0 0 1e3 1e-8 4 12 0 1 0 1 1 13 14 15 16 0 0 17 18 19 0 0 0 0
 0 0 100 255 8 4 4 0 0 1 0 0 0 1 0 0 0 1 0 0 0 1 0 ?11 9 1 0 1 12 20 1 0 4 0 0 1
2 12 250 21 22 0 0 0 0 0 0 1e3 1e-8 9 23 7 1 0 1 1 24 25 26 27 0 0 28 29 30 0 0
 0 0 0 0 100 20 2 9 0 0 1 0 0 0 1 0 0 0 1 0 0 0 1 0 ?81 1 21 250 31 12 0 0 0 0 0
 70 22 0 4 T12 0 0 3 20 1 32 32 13 255 24 8 0 12 0 33 0 0 34 0 50 255 25 151 0 3
5 36 0 0 +.0633625 0 -.03237192927358175 0 1 0 0 0 1 30 255 26 132 0 37 38 0 0 +
-.0177875 0 -.03237192927358175 0 0 1 29 255 27 150 0 39 40 0 -.0177875 0 0 19 8
 CCCCCCCA5 owner12 0 Z28 6 0 12 34 0 41 V0 16 255 29 35 0 ?42 0 43 44 0 0 12 18
 255 30 53 0 45 0 39 46 ?12 17 255 45 0 47 48 49 30 50 51 0 52 -18 39 52 0 49 30
 53 27 ?12 29 46 147 0 30 54 55 .0177875 0 0 29 54 146 0 56 57 46 .0052875 .0022
5 .02262807072641825 29 55 148 0 58 46 40 .0177875 0 .02262807072641825 18 58 50
 0 48 53 59 55 ?12 29 40 149 0 53 55 27 -.0177875 0 .02262807072641825 18 53 51
 0 60 39 58 40 ?12 17 60 0 47 49 48 53 61 62 0 63 -15 255 47 92 0 48 35 0 17 49
 0 47 45 60 39 63 37 0 64 -17 48 0 47 60 45 58 52 65 0 61 -17 61 0 66 67 68 58 6
0 62 0 69 +16 62 22 0 ?61 65 70 71 0 0 12 17 63 0 72 73 64 53 49 37 0 68 +15 72
 66 0 64 74 0 17 73 0 72 75 63 76 68 70 0 77 -17 64 0 72 63 75 39 78 79 0 50 +16
 37 19 0 ?63 80 79 26 0 0 12 17 68 0 66 61 77 53 73 70 0 0 +15 66 69 0 81 82 0 1
7 77 0 66 68 83 76 84 85 0 0 -16 70 21 0 ?68 62 80 86 0 0 12 16 80 20 0 ?83 70 3
7 87 0 0 12 30 86 110 0 70 88 89 0 +-.0177875 .011 .02262807072641825 0 -1 0 30
 88 109 0 79 90 86 0 +-.0177875 .011 0 0 -1 0 30 89 111 0 91 86 92 0 +.0177875 .
011 .02262807072641825 0 -1 0 16 91 24 0 ?69 93 65 89 0 0 12 30 92 112 0 94 89 9
5 0 +.0177875 .011 0 0 -1 0 16 94 17 0 ?96 79 51 92 0 0 12 30 95 113 0 65 92 71
 0 +.0177875 0 0 0 0 -1 16 65 23 0 ?52 91 62 95 0 0 12 30 71 114 0 62 95 97 0 +-
.0177875 0 .02262807072641825 1 0 0 31 255 97 115 0 51 71 98 0 +0 0 0 0 1 0 0 0
 1 .0177875 16 51 16 0 ?50 94 85 97 0 0 12 30 98 116 0 99 97 100 0 +.0177875 .01
1 0 0 0 -1 16 99 12 0 ?101 102 103 98 0 0 12 30 100 117 0 85 98 104 0 +-.0177875
 .011 .02262807072641825 1 0 0 16 85 15 0 ?84 51 105 100 103 103 12 30 104 118 0
 105 100 106 0 +-.0177875 .011 0 0 0 1 16 105 14 0 ?107 85 102 104 0 0 12 31 106
 119 0 102 104 108 0 +0 .011 0 0 1 0 0 0 1 .0177875 16 102 13 0 ?109 105 99 106
 0 0 12 31 108 120 0 110 106 111 0 +0 .011 0 0 1 0 0 0 1 .01425 16 110 9 0 ?112
 113 0 108 0 0 12 31 111 121 0 113 108 44 0 +0 .00225 0 0 -1 0 0 0 -1 .01425 16
 113 10 0 ?114 103 110 111 0 0 12 31 44 122 0 29 111 115 0 +0 0 0 0 1 0 0 0 1 .0
104 30 115 123 0 116 44 117 0 +.0052875 .011 .01323271868324872 0 -1 0 16 116 30
 0 ?118 119 120 115 0 0 12 30 117 124 0 121 115 87 0 --.0052875 .011 .0132327186
8324872 0 -1 0 16 121 33 0 ?122 43 123 117 0 0 12 30 87 125 0 80 117 124 0 +-.00
52875 .00225 .02262807072641825 0 1 0 30 124 126 0 119 87 125 0 +.0052875 .00225
 .02262807072641825 0 1 0 16 119 31 0 ?126 123 116 124 0 0 12 30 125 127 0 43 12
4 127 0 +-.0052875 .011 .0103998125081596 0 0 1 16 43 34 0 ?128 29 121 125 0 0 1
2 30 127 128 0 123 125 129 0 +.0052875 .011 .02262807072641825 0 0 -1 16 123 32
 0 ?130 121 119 127 0 0 12 30 129 129 0 131 127 132 0 +-.0052875 .00225 .0226280
7072641825 1 0 0 16 131 26 0 ?133 134 93 129 0 0 12 30 132 130 0 93 129 38 0 +-.
0052875 .00225 .0103998125081596 0 0 1 16 93 25 0 ?135 131 91 132 0 0 12 30 38 1
31 0 134 132 26 0 +.0052875 .00225 .02262807072641825 0 0 -1 16 134 27 0 ?136 13
7 131 38 0 0 12 17 136 0 138 139 133 140 141 134 0 114 +16 137 28 0 ?142 120 134
 143 0 0 12 17 142 0 144 145 145 146 147 137 0 0 +16 120 29 0 270062090924547e-2
1 145 116 137 0 0 0 12 133 255 143 104 0 137 148 149 0 +148 624483396685354e-19
 .00225 .0103998125081596 -624483396685354e-19 .00225 .0103998125081596 .0060046
841293666 6.27718062305022 31 148 103 0 12 0 143 150 +0 .00225 0 0 1 0 0 0 1 .01
04 137 255 149 105 0 12 143 151 152 +153 154 0 ?133 151 106 0 155 149 156 0 +149
 624483396685332e-19 .00225 .0103998125081596 -624483396685358e-19 .00225 .01039
98125081596 0 1 141 255 152 151 152 152 149 50 153 99 0 157 158 159 160 +0 .0022
5 0 0 -1 0 0 0 -1 134 255 154 0 0 0 0 0 0 +161 162 136 255 161 2 3 2 2 5 FFF1 16
3 164 165 135 255 162 1 0 45 255 6 163 -.0103998125081596 624483396685332e-19 -.
0104001874952206 -2561427632497005e-33 -.0103998125081596 -624483396685358e-19 1
27 255 2 164 3 3 128 255 2 165 0 1 14 255 157 73 166 ?167 168 138 24 153 -0 0 16
7 168 41 51 255 158 98 0 33 169 153 0 -0 .011 0 0 -1 0 .01425 0 0 -1 51 159 100
 0 167 153 170 171 +0 0 0 0 1 0 .0104 0 0 1 141 160 149 160 160 153 14 167 78 17
2 ?173 157 174 24 159 -0 0 173 157 41 50 170 101 0 173 159 36 0 +.0052875 .00225
 .02262807072641825 1 0 0 0 0 -1 141 171 156 171 171 159 137 156 107 0 12 151 90
 175 +159 176 0 ?133 90 108 0 145 156 88 0 +156 -624483396685358e-19 .00225 .010
3998125081596 624483396685307e-19 .00225 .0103998125081596 0 1 141 175 90 175 17
5 156 134 176 0 0 0 0 0 0 +177 178 136 177 1 2 2 2 5 FFF1 179 180 181 135 178 1
 0 45 4 179 6.27718062305022 .00225 6.28918999130895 .00225 127 2 180 2 2 128 2
 181 0 1 17 145 0 144 142 142 182 155 120 90 147 +15 144 81 0 142 167 0 18 182 4
1 0 145 140 146 183 270062090924547e-21 12 17 155 0 184 147 147 146 145 120 151
 142 -17 147 0 184 155 155 182 142 137 0 0 -15 184 77 0 155 157 0 18 146 40 0 15
5 182 185 186 270062090924547e-21 12 18 185 39 0 75 146 76 187 ?12 29 186 134 0
 146 188 183 -624483396685354e-19 .00225 .0103998125081596 29 188 133 0 189 0 18
6 -.0052875 .00225 .02262807072641825 29 183 135 0 182 186 190 624483396685354e-
19 .00225 .0103998125081596 29 190 136 0 191 183 192 .0177875 .011 0 18 191 37 0
 101 76 193 190 ?12 29 192 137 0 193 190 194 .0177875 .011 .02262807072641825 18
 193 36 0 195 191 0 192 ?12 29 194 138 0 76 192 187 -.0177875 .011 .022628070726
41825 18 76 38 0 107 185 191 194 ?12 29 187 139 0 185 194 196 -.0177875 .011 0 2
9 196 140 0 197 187 198 .0052875 .011 .01323271868324872 18 197 45 0 130 199 200
 196 ?12 29 198 141 0 199 196 201 -.0052875 .011 .01323271868324872 18 199 46 0
 122 202 197 198 ?12 29 201 142 0 59 198 203 -.0052875 .00225 .01323271868324872
 18 59 49 0 204 58 189 201 ?12 29 203 143 0 140 201 205 .0052875 .00225 .0132327
1868324872 18 140 42 0 118 56 182 203 ?12 29 205 144 0 200 203 57 .0052875 .011
 .02262807072641825 18 200 44 0 126 197 56 205 ?12 29 57 145 0 202 205 54 -.0052
875 .011 .02262807072641825 18 202 47 0 128 189 199 57 ?12 17 128 0 206 207 122
 202 208 43 0 83 +18 189 48 0 207 59 202 188 ?12 17 207 0 206 204 128 189 83 80
 0 135 -15 206 87 0 122 209 0 17 204 0 206 122 207 59 135 93 0 210 -17 83 0 66 7
7 211 202 207 80 0 84 +17 135 0 138 133 139 189 204 93 0 211 +15 138 76 0 139 15
7 184 17 133 0 138 136 135 56 211 131 0 212 +17 139 0 138 135 136 59 114 113 0 0
 -17 211 0 66 83 212 189 133 131 0 0 -17 212 0 66 211 81 56 126 119 0 0 -17 81 0
 66 212 67 200 195 103 0 0 -18 56 43 0 141 200 140 54 ?12 17 126 0 213 130 141 2
00 212 119 0 214 +15 213 84 0 118 173 0 17 130 0 213 118 126 197 214 123 0 215 +
17 141 0 213 126 118 56 136 134 0 133 -17 214 0 216 195 217 200 130 123 0 81 -15
 216 59 0 214 218 0 17 195 0 216 101 214 193 81 103 0 67 +17 217 0 216 214 208 1
97 112 110 0 0 -17 208 0 216 217 84 199 128 43 0 112 -17 112 0 219 210 215 199 2
17 110 0 0 +15 219 56 0 215 33 0 17 210 0 219 114 112 59 122 121 0 139 -17 215 0
 219 112 114 197 118 116 0 217 -17 114 0 219 215 210 140 139 113 0 0 +17 118 0 2
13 141 130 140 215 116 0 136 +17 122 0 206 128 204 199 210 121 0 208 +14 33 54 2
20 ?218 0 219 24 158 +0 0 218 0 41 81 1 220 241 221 33 222 0 172 223 224 14 218
 57 223 ?225 33 216 24 169 +0 0 225 33 41 13 41 7 0 0 0 0 0 0 28 33 81 1 223 242
 221 218 226 0 220 227 228 14 225 60 227 ?74 218 229 24 230 -0 0 74 218 41 50 16
9 97 0 218 231 158 0 +0 .011 0 0 1 0 0 0 1 50 231 96 0 168 232 169 0 +.0177875 .
011 0 -1 0 0 0 0 1 14 168 70 233 ?157 82 234 24 231 -0 0 157 82 41 50 232 95 0 8
2 235 231 0 +-.0177875 .011 .02262807072641825 0 0 -1 -1 0 0 14 82 67 236 ?168 7
4 66 24 232 -0 0 168 74 41 50 235 94 0 74 230 232 0 +-.0177875 .011 0 1 0 0 0 0
 -1 14 74 63 237 ?82 225 72 24 235 -0 0 82 225 41 51 230 93 0 225 0 235 0 -0 .01
1 0 0 -1 0 .0177875 0 0 -1 81 1 237 246 221 74 238 0 236 239 240 80 255 1 221 24
1 242 9000 1 1 1 1 1 1 1 1 0 FFFFTFTFFFFFFF1 81 1 238 205 243 74 0 237 244 245 2
46 81 1 236 245 221 82 245 0 233 237 247 81 1 239 247 221 173 248 0 237 249 250
 82 255 1 240 898040564 14 173 82 239 ?209 167 213 24 170 -0 0 209 167 41 81 1 2
48 210 243 173 0 239 251 252 253 81 1 249 248 221 209 252 0 239 254 255 82 1 250
 901645044 14 209 85 249 ?35 173 206 24 36 -0 0 35 173 41 81 1 252 211 243 209 0
 249 248 256 257 81 1 254 249 221 35 256 0 249 0 258 82 1 255 901448436 14 35 88
 254 ?0 209 259 24 25 -0 0 0 209 41 81 1 256 212 243 35 0 254 252 0 260 82 1 258
 950403828 80 1 243 0 261 8001 0 0 0 0 3 5 0 0 0 FFFFTFTFFFFFFF2 83 255 3 260 .8
98039215686275 .917647058823529 .929411764705882 79 255 15 261 SDL/TYSA_COLOUR15
 259 91 0 42 35 47 17 42 0 259 42 42 0 262 29 0 0 +17 262 0 174 262 262 0 42 29
 0 0 -15 174 80 0 262 167 144 83 3 257 .898039215686275 .917647058823529 .929411
764705882 50 36 102 0 209 170 25 0 +-.0052875 .00225 .0103998125081596 -1 0 0 0
 0 1 81 1 251 209 243 167 0 172 263 248 264 83 3 253 .898039215686275 .917647058
823529 .929411764705882 81 1 172 240 221 167 251 0 166 220 265 81 1 263 208 243
 157 0 166 266 251 267 83 3 264 .898039215686275 .917647058823529 .9294117647058
82 81 1 166 239 221 157 263 0 0 172 268 81 1 266 207 243 168 0 233 245 263 269 8
3 3 267 .898039215686275 .917647058823529 .929411764705882 81 1 233 244 221 168
 266 0 227 236 270 81 1 245 206 243 82 0 236 238 266 271 83 3 269 .8980392156862
75 .917647058823529 .929411764705882 83 3 271 .898039215686275 .917647058823529
 .929411764705882 81 1 227 243 221 225 244 0 223 233 272 82 1 270 897778420 81 1
 244 204 243 225 0 227 226 238 273 82 1 272 898171636 81 1 226 203 243 218 0 223
 222 244 274 83 3 273 .898039215686275 .917647058823529 .929411764705882 81 1 22
2 202 243 33 0 220 0 226 275 83 3 274 .898039215686275 .917647058823529 .9294117
64705882 83 3 275 .898039215686275 .917647058823529 .929411764705882 82 1 268 89
6795380 82 1 265 896598772 82 1 247 897909492 83 3 246 .898039215686275 .9176470
58823529 .929411764705882 79 14 242 SWEntUnchanged15 234 72 0 52 168 0 17 52 0 2
34 276 69 30 48 65 0 96 +17 276 0 234 277 52 191 96 94 0 278 -17 69 0 234 52 277
 58 67 91 0 0 +17 96 0 229 50 278 30 276 94 0 0 +15 229 62 0 50 225 0 17 50 0 22
9 78 96 39 45 51 0 0 +17 278 0 229 96 78 191 109 102 0 0 -17 78 0 229 278 50 185
 64 79 0 0 -17 109 0 216 107 101 185 278 102 0 78 +17 107 0 216 84 109 76 75 105
 0 73 +17 101 0 216 109 195 191 277 99 0 276 +17 277 0 234 69 276 193 101 99 0 0
 -17 84 0 216 208 107 202 77 85 0 0 +17 75 0 72 64 73 185 107 105 0 109 -16 79 1
8 0 ?64 37 94 88 0 0 12 17 67 0 66 81 61 193 69 91 0 277 -82 1 228 897647348 82
 1 224 897516276 16 103 11 0 ?195 99 113 100 85 85 12 141 150 143 150 150 148 19
 34 1 0 12 0 28 24 S0 74 4 CI16 index_map_offset0 0 1 dCCZ20 32 3 0 0 254 256 21
 0 0 0 0 0 0 0 0 0 0 0 0 0 0 0 0 0 80 1 31 279 280 8017 0 0 0 0 0 0 0 0 0 TTTTTT
TTTTTTTF3 79 13 280 SDL/TYSA_NAME81 1 10 1250 31 7 0 0 0 0 0 70 11 0 4 T7 0 0 3
 20 1 281 281 13 13 1166 0 7 0 282 0 0 283 0 51 14 846 0 284 285 0 0 -.045575 .0
11 0 0 -1 0 .0177875 0 0 -1 31 15 861 0 7 286 0 287 +.045575 .00225 0 0 -1 0 0 0
 1 .0104 29 16 902 0 19 288 0 .0508625 .00225 .02262807072641825 19 17 1168 0 7
 283 0 289 V0 16 18 717 0 ?290 0 291 292 0 0 7 18 19 764 0 293 0 294 16 ?7 17 29
3 0 295 296 297 19 298 299 0 300 +18 294 761 0 301 19 302 288 270062090924547e-2
1 7 17 301 0 303 304 304 294 305 306 0 307 +18 302 762 0 305 294 308 309 2700620
90924547e-21 7 29 288 903 0 294 309 16 .0456374483396685 .00225 .010399812508159
6 29 309 904 0 302 310 288 .0455125516603315 .00225 .0103998125081596 29 310 905
 0 311 312 309 .0277875 0 .02262807072641825 18 311 757 0 313 314 315 310 ?7 29
 312 906 0 308 316 310 .0277875 .011 0 18 308 751 0 317 302 318 312 ?7 29 316 90
7 0 318 319 312 .0277875 .011 .02262807072641825 18 318 758 0 320 308 321 316 ?7
 29 319 908 0 321 322 316 .0633625 .011 .02262807072641825 18 321 755 0 323 318
 314 319 ?7 29 322 909 0 314 324 319 .0633625 .011 0 18 314 752 0 325 321 311 32
2 ?7 29 324 910 0 315 326 322 .0402875 .011 .01323271868324872 18 315 750 0 327
 311 328 324 ?7 29 326 911 0 328 329 324 .0508625 .011 .01323271868324872 18 328
 766 0 330 315 331 326 ?7 29 329 912 0 331 332 326 .0508625 .00225 .013232718683
24872 18 331 760 0 298 328 333 329 ?7 29 332 913 0 333 334 329 .0402875 .00225 .
01323271868324872 18 333 763 0 335 331 336 332 ?7 29 334 914 0 337 338 332 .0402
875 .011 .02262807072641825 18 337 756 0 339 336 340 334 ?7 29 338 915 0 340 341
 334 .0508625 .011 .02262807072641825 18 340 765 0 296 337 342 338 ?7 29 341 916
 0 336 343 338 .0402875 .00225 .02262807072641825 18 336 759 0 344 333 337 341 ?
7 29 343 1142 0 342 345 341 .0277875 0 0 18 342 1036 0 346 340 347 343 ?7 29 345
 1146 0 347 348 343 .0633625 0 .02262807072641825 18 347 1037 0 349 342 350 345
 ?7 29 348 1147 0 350 0 345 .0633625 0 0 18 350 1044 0 351 347 0 348 ?7 17 351 0
 352 349 346 350 353 354 0 355 +15 352 1070 0 349 356 357 17 349 0 352 313 351 3
47 355 358 0 359 +17 346 0 352 351 313 342 360 361 0 362 +17 353 0 363 317 290 3
42 351 354 0 0 -16 354 744 0 ?351 364 365 366 0 0 7 17 355 0 367 325 368 350 349
 358 0 290 -15 367 792 0 368 369 0 17 325 0 367 370 355 314 290 18 0 371 -17 368
 0 367 355 370 347 323 291 0 0 +16 358 985 0 ?349 372 0 373 0 0 7 17 290 0 363 3
53 371 350 325 18 0 0 +15 363 787 0 353 284 0 17 371 0 363 290 317 314 374 375 0
 376 +17 317 0 363 371 353 308 362 377 0 378 -17 374 0 379 380 376 308 371 375 0
 0 -16 375 716 0 ?371 381 361 382 0 0 7 17 376 0 379 374 383 314 370 381 0 0 -15
 379 783 0 327 384 0 17 383 0 379 376 385 321 386 387 0 0 -17 370 0 367 368 325
 321 376 381 0 383 +16 381 718 0 ?370 388 375 389 0 0 7 16 388 722 0 ?390 387 38
1 391 387 387 7 30 389 876 0 381 382 391 0 +.0633625 .011 0 0 0 1 31 382 877 0 3
75 392 389 0 +.045575 .011 0 0 -1 0 0 0 1 .0177875 30 391 875 0 387 389 393 0 +.
0633625 .011 .02262807072641825 -1 0 0 16 387 724 0 ?386 394 388 391 388 388 7 3
0 393 874 0 394 391 366 0 +.0277875 .011 0 0 0 -1 16 394 727 0 ?378 377 387 393
 0 0 7 31 366 873 0 354 393 395 0 +.045575 0 0 0 -1 0 0 0 1 .0177875 30 395 872
 0 364 366 396 0 +.0633625 0 .02262807072641825 -1 0 0 16 364 748 0 ?313 361 354
 395 0 0 7 30 396 871 0 361 395 397 0 +.0277875 0 0 0 0 -1 16 361 749 0 ?346 375
 364 396 0 0 7 30 397 870 0 377 396 398 0 +.0277875 .011 0 0 -1 0 16 377 728 0 ?
362 399 394 397 0 0 7 30 398 869 0 399 397 400 0 +.0277875 .011 .022628070726418
25 0 -1 0 16 399 723 0 ?401 291 377 398 0 0 7 30 400 868 0 291 398 292 0 +.06336
25 .011 .02262807072641825 0 -1 0 16 291 719 0 ?368 18 399 400 0 0 7 30 292 867
 0 18 400 402 0 +.0633625 .011 0 0 -1 0 133 402 866 0 307 292 403 0 +403 .045512
5516603315 .00225 .0103998125081596 .0456374483396685 .00225 .0103998125081596 1
 0 17 307 0 404 305 305 294 304 405 402 0 -137 403 865 0 7 402 406 407 -408 409
 0 ?133 406 864 0 304 403 410 0 +410 .0456374483396685 .00225 .0103998125081596
 .0455125516603315 .00225 .0103998125081596 1 0 141 407 402 407 407 403 51 408 8
53 0 411 412 413 414 +.045575 0 0 0 1 0 .0104 0 0 1 134 409 0 0 0 0 0 0 +415 416
 136 415 1 2 2 2 5 FFF1 417 418 419 135 416 1 0 45 4 417 .00600468412936639 .002
25 -.00600468412936639 .00225 127 2 418 2 2 128 2 419 0 1 14 411 807 420 ?421 42
2 423 13 408 -0 0 421 422 289 50 412 854 0 422 424 408 0 +.0402875 .00225 .02262
807072641825 -1 0 0 0 0 -1 50 413 852 0 421 408 425 426 +.045575 .00225 0 0 -1 0
 0 0 -1 141 414 403 414 414 408 14 421 801 427 ?428 411 429 13 413 -0 0 428 411
 289 51 425 851 0 282 413 430 0 -.045575 .011 0 0 -1 0 .01425 0 0 -1 141 426 410
 426 426 413 137 410 863 0 7 406 286 431 -413 432 0 ?133 286 862 0 306 410 15 0
 +15 .0455125516603315 .00225 .0103998125081596 .0456374483396685 .00225 .010399
8125081596 .0060046841293666 6.27718062305022 141 431 406 431 431 410 134 432 0
 0 0 0 0 0 +433 434 136 433 2 3 2 2 5 FFF1 435 436 437 135 434 1 0 45 6 435 -.01
03998125081596 -624483396685332e-19 -.0104001874952206 2561427632497005e-33 -.01
03998125081596 624483396685358e-19 127 2 436 3 3 128 2 437 0 1 16 306 731 0 ?301
 438 405 286 0 0 7 16 438 729 0 ?439 365 306 440 0 0 7 16 405 730 0 270062090924
547e-21 304 306 441 0 0 0 7 17 304 0 303 301 301 302 307 405 406 0 +16 441 711 0
 ?442 405 443 444 0 0 7 17 442 0 445 446 447 333 448 441 0 0 +16 443 712 0 ?449
 441 450 451 0 0 7 30 444 881 0 441 451 452 0 +.0402875 .011 .01323271868324872
 0 -1 0 30 451 882 0 443 453 444 0 -.0508625 .011 .01323271868324872 0 -1 0 31 4
52 880 0 372 444 440 0 +.045575 0 0 0 -1 0 0 0 1 .0104 16 372 995 0 ?454 455 358
 452 0 0 7 31 440 879 0 438 452 392 0 +.045575 .00225 0 0 1 0 0 0 -1 .01425 31 3
92 878 0 365 440 382 0 +.045575 .011 0 0 -1 0 0 0 1 .01425 16 365 714 0 ?456 354
 438 392 0 0 7 17 456 0 379 385 327 328 447 365 0 449 +17 385 0 379 383 456 340
 330 457 0 0 +17 327 0 379 456 458 315 459 455 0 447 +17 447 0 445 442 449 315 4
56 365 0 448 -17 449 0 445 447 446 328 297 443 0 0 +15 445 779 0 442 282 0 17 44
6 0 445 449 442 331 439 438 0 0 -17 297 0 295 293 330 331 449 443 0 446 -15 295
 819 0 297 428 0 17 330 0 295 297 296 328 385 457 0 456 -17 296 0 295 330 293 34
0 460 461 0 386 +16 457 715 0 ?385 462 455 463 0 0 7 16 462 733 0 ?335 299 457 4
64 0 0 7 16 455 713 0 ?327 457 372 465 0 0 7 30 463 885 0 457 465 466 0 +.050862
5 .011 .0103998125081596 0 0 1 30 465 886 0 455 467 463 0 +.0402875 .011 .022628
07072641825 0 0 -1 30 466 884 0 450 463 453 0 +.0402875 .00225 .0226280707264182
5 0 1 0 16 450 726 0 ?339 443 461 466 0 0 7 30 453 883 0 461 466 451 0 +.0508625
 .00225 .02262807072641825 0 1 0 16 461 735 0 ?296 450 468 453 0 0 7 16 468 725
 0 ?469 461 299 467 0 0 7 17 469 0 470 339 460 336 300 468 0 0 +16 299 734 0 ?29
3 468 462 471 0 0 7 30 467 887 0 468 471 465 0 +.0508625 .00225 .022628070726418
25 -1 0 0 30 471 888 0 299 464 467 0 +.0508625 .00225 .0103998125081596 0 0 1 30
 464 889 0 462 373 471 0 +.0402875 .00225 .02262807072641825 0 0 -1 30 373 1125
 0 358 0 464 0 +.0633625 0 -.03237192927358175 0 0 1 15 470 796 0 390 472 0 17 3
39 0 470 390 469 337 473 450 0 458 +17 460 0 470 469 386 19 296 461 0 0 -17 300
 0 429 298 344 19 469 468 0 460 -15 429 805 0 439 421 303 17 298 0 429 439 300 3
31 293 299 0 297 -17 344 0 429 300 439 336 335 462 0 473 -17 439 0 429 344 298 3
33 446 438 0 442 +17 335 0 474 448 473 333 344 462 0 439 +17 473 0 474 335 459 3
36 339 450 0 469 -15 474 815 0 448 422 0 17 459 0 474 473 448 337 327 455 0 0 -1
7 448 0 474 459 335 315 442 441 0 0 -14 422 812 475 ?411 282 474 13 412 -0 0 411
 282 289 81 1 475 1241 221 422 476 0 427 477 478 14 282 776 477 ?422 0 445 13 42
5 +0 0 422 0 289 13 289 1167 0 0 0 0 0 0 17 282 81 1 477 1242 221 282 479 0 475
 480 481 81 1 479 1202 243 282 0 477 0 476 482 81 1 480 1243 221 384 483 0 477 4
84 485 82 1 481 872809202 14 384 780 480 ?486 428 379 13 430 +0 0 486 428 289 81
 1 483 1207 243 384 0 480 487 488 489 81 1 484 1244 221 428 487 0 480 490 491 82
 1 485 872940274 14 428 816 484 ?384 421 295 13 424 -0 0 384 421 289 81 1 487 12
06 243 428 0 484 492 483 493 81 1 490 1245 221 486 488 0 484 494 495 82 1 491 87
6741362 14 486 797 490 ?472 384 496 13 497 -0 0 472 384 289 81 1 488 1208 243 48
6 0 490 483 498 499 81 1 494 1246 221 472 498 0 490 500 501 82 1 495 873071348 1
4 472 793 494 ?369 486 470 13 502 -0 0 369 486 289 81 1 498 1209 243 472 0 494 4
88 503 504 81 1 500 1247 221 369 503 0 494 505 506 82 1 501 873202420 14 369 788
 500 ?284 472 367 13 285 -0 0 284 472 289 81 1 503 1210 243 369 0 500 498 507 50
8 81 1 505 1248 221 284 507 0 500 509 510 82 1 506 873333492 14 284 784 505 ?356
 369 363 13 14 -0 0 356 369 289 81 1 507 1211 243 284 0 505 503 511 512 81 1 509
 1249 221 356 511 0 505 0 513 82 1 510 873464564 14 356 1067 509 ?0 284 352 13 5
14 -0 0 0 284 289 81 1 511 1212 243 356 0 509 507 0 515 82 1 513 950928116 83 3
 515 .898039215686275 .917647058823529 .929411764705882 50 514 1110 0 356 0 424
 0 +.0633625 0 -.03237192927358175 0 1 0 0 0 1 50 424 855 0 428 514 412 0 +.0508
625 .00225 .0103998125081596 1 0 0 0 0 1 83 3 512 .898039215686275 .917647058823
529 .929411764705882 83 3 508 .898039215686275 .917647058823529 .929411764705882
 50 285 847 0 369 502 14 0 +.0633625 .011 0 -1 0 0 0 0 -1 50 502 848 0 472 497 2
85 0 +.0633625 .011 .02262807072641825 0 0 -1 1 0 0 50 497 849 0 486 430 502 0 +
.0277875 .011 0 1 0 0 0 0 1 50 430 850 0 384 425 497 0 +.045575 .011 0 0 1 0 0 0
 1 83 3 504 .898039215686275 .917647058823529 .929411764705882 83 3 499 .8980392
15686275 .917647058823529 .929411764705882 15 496 800 0 360 486 0 17 360 0 496 3
20 362 311 346 361 0 401 -17 320 0 496 378 360 318 401 399 0 390 -17 362 0 496 3
60 378 342 317 377 0 353 +17 401 0 470 359 390 311 320 399 0 0 +17 359 0 470 323
 401 347 313 364 0 368 -17 390 0 470 401 339 318 458 388 0 380 +17 458 0 379 327
 380 337 390 388 0 459 -17 380 0 379 458 374 318 378 394 0 0 -17 378 0 496 362 3
20 308 380 394 0 374 +17 323 0 470 386 359 321 368 291 0 370 -17 313 0 352 346 3
49 311 359 364 0 360 +17 386 0 470 460 323 340 383 387 0 385 +81 1 492 1205 243
 421 0 427 516 487 517 83 3 493 .898039215686275 .917647058823529 .9294117647058
82 81 1 427 1240 221 421 492 0 420 475 518 81 1 516 1204 243 411 0 420 476 492 5
19 83 3 517 .898039215686275 .917647058823529 .929411764705882 81 1 420 1239 221
 411 516 0 0 427 520 81 1 476 1203 243 422 0 475 479 516 521 83 3 519 .898039215
686275 .917647058823529 .929411764705882 83 3 521 .898039215686275 .917647058823
529 .929411764705882 82 1 520 871891698 82 1 518 872088306 83 3 489 .89803921568
6275 .917647058823529 .929411764705882 83 3 482 .898039215686275 .91764705882352
9 .929411764705882 82 1 478 876937970 15 303 806 0 304 421 0 17 454 0 423 454 45
4 0 522 372 0 0 +15 423 810 0 454 411 404 17 522 0 357 522 522 0 454 372 0 0 -15
 357 1071 0 522 356 0 15 404 811 0 305 411 0 17 305 0 404 307 307 302 301 306 0
 304 -19 283 95 0 7 0 17 13 S0 141 287 286 287 287 15 74 20 281 3 0 0 509 511 10
 0 0 0 0 0 0 0 0 0 0 0 0 0 0 0 0 0 74 20 6 1 0 0 2 0 0 0 0 0 0 0 0 0 0 0 0 0 0 0
 0 0 0 0 80 2 5 523 524 9000 0 0 0 0 3 5 0 0 0 TFFFFFFFFFFFFF9 1 79 18 524 MULTI
_BODY_ID_20011 0 
