**ABCDEFGHIJKLMNOPQRSTUVWXYZabcdefghijklmnopqrstuvwxyz**************************
**PARASOLID !"#$%&'()*+,-./:;<=>?@[\]^_`{|}~0123456789**************************
**PART1;
MC=AMD64;
MC_MODEL=Intel64 Family 6 Model 60 Stepping 3, GenuineIntel;
MC_ID=unknown;
OS=Windows_NT;
OS_RELEASE=unknown;
FRU=Parasolid Version 29.0, build 195, 12- 2-2016;
APPL=SOLIDWORKS 2017-2017033;
SITE=;
USER=unknown;
FORMAT=text;
GUISE=transmit;
KEY=CAM_GRC18_Housing_Cover_Mold;
FILE=CAM_GRC18_Housing_Cover_Mold.x_t;
DATE=Sun Mar 11 21:52:50 2018;
**PART2;
SCH=SCH_2900195_28101;
USFLD_SIZE=0;
**PART3;
**END_OF_HEADER*****************************************************************
T51 : TRANSMIT FILE created by modeller version 290019523 SCH_2900195_28101_1300
6203 0 12 33 CCCCCCI4 mesh1006 0 I8 polyline1008 0 CCCCCCCDI5 owner1040 0 CCCCCC
I13 boundary_mesh1006 0 I17 boundary_polyline1008 0 CCCA16 index_map_offset0 0 1
 dA9 index_map82 0 A17 node_id_index_map82 0 A20 schema_embedding_map82 0 A5 chi
ld12 0 A14 lowest_node_id0 0 1 dZ1 421 0 2 0 0 0 0 0 0 1e3 1e-8 0 3 0 1 0 1 1 4
 5 6 7 0 0 8 9 10 0 0 0 0 0 0 70 11 CI9 list_type0 0 1 uI10 notransmit0 0 1 lCCC
DCCDI12 finger_index0 0 1 dI12 finger_block1012 0 CZ2 0 4 T1 0 0 2 20 1 11 11 13
 255 4 94 0 1 0 12 0 0 13 0 50 255 5 89 0 14 15 0 0 +.01798101025484685 .028 -.0
2137660738588845 -1 0 0 0 0 1 30 255 6 93 0 9 16 0 0 +.01798101025484685 .028 -.
02137660738588845 0 -1 0 29 255 7 70 0 10 17 0 .01798101025484685 0 .02321885862
39412 19 8 CCCCCCCA5 owner12 0 Z8 28 0 1 13 0 18 V0 16 255 9 156 0 ?19 0 20 6 0
 0 1 18 255 10 61 0 21 0 22 7 ?1 17 255 21 0 23 24 25 10 26 27 0 28 +18 22 62 0
 29 10 30 17 ?1 17 29 0 31 28 32 22 33 34 0 35 +18 30 63 0 36 22 37 38 ?1 29 17
 71 0 22 38 7 .00537982225484685 0 .0232188586239412 29 38 72 0 30 39 17 .005379
82225484685 0 -.02137660738588845 29 39 73 0 37 40 38 .01798101025484685 0 -.021
37660738588845 18 37 64 0 19 30 41 39 ?1 29 40 311 0 42 43 39 .01798101025484685
 .028 .0252188586239412 18 42 225 0 44 45 46 40 ?1 29 43 312 0 46 47 40 .0053798
2225484685 .028 .0252188586239412 18 46 227 0 48 42 49 43 ?1 29 47 313 0 49 50 4
3 .00537982225484685 .028 -.02337660738588845 18 49 229 0 51 46 52 47 ?1 29 50 3
14 0 52 53 47 .01798101025484685 .028 -.02337660738588845 18 52 231 0 54 49 0 50
 ?1 29 53 318 0 41 55 50 .01798101025484685 .0254 .0232188586239412 18 41 220 0
 56 37 57 53 ?1 29 55 319 0 57 58 53 .01798101025484685 .0254 .0252188586239412
 18 57 222 0 59 41 60 55 ?1 29 58 320 0 60 61 55 .00537982225484685 .0254 .02521
88586239412 18 60 224 0 62 57 63 58 ?1 29 61 321 0 63 64 58 .00537982225484685 .
0254 -.02337660738588845 18 63 226 0 65 60 66 61 ?1 29 64 322 0 66 67 61 .017981
01025484685 .0254 -.02337660738588845 18 66 228 0 68 63 69 64 ?1 29 67 323 0 69
 70 64 .01798101025484685 .0254 -.02137660738588845 18 69 230 0 71 66 72 67 ?1 2
9 70 324 0 72 73 67 .00537982225484685 .0254 -.02137660738588845 18 72 232 0 74
 69 45 70 ?1 29 73 325 0 45 0 70 .00537982225484685 .0254 .0232188586239412 18 4
5 234 0 75 72 42 73 ?1 17 75 0 76 56 74 45 77 78 0 32 -15 255 76 270 0 56 79 0 1
7 56 0 76 80 75 41 32 81 0 25 -17 74 0 76 75 71 72 82 83 0 77 -17 77 0 84 36 33
 72 75 78 0 85 +16 78 192 0 ?77 83 81 86 0 0 1 17 32 0 31 29 26 45 56 81 0 33 +1
5 31 143 0 32 87 0 17 26 0 31 32 28 41 21 27 0 0 -16 81 164 0 ?32 78 88 89 0 0 1
 17 33 0 84 77 35 45 29 34 0 0 -15 84 151 0 77 90 0 17 35 0 84 33 36 22 91 92 0
 93 +16 34 140 0 ?29 20 27 94 0 0 1 16 20 148 0 ?36 9 34 16 0 0 1 16 27 137 0 ?2
1 34 95 96 0 0 1 30 94 91 0 34 96 16 0 +.00537982225484685 .028 .023218858623941
2 0 -1 0 30 96 90 0 27 97 94 0 +.01798101025484685 .028 .0232188586239412 0 -1 0
 30 16 92 0 20 94 6 0 +.00537982225484685 .028 -.02137660738588845 0 -1 0 30 97
 66 0 98 99 96 0 +.00537982225484685 0 .0232188586239412 1 0 -275326973294392e-3
0 16 98 45 0 ?28 95 92 97 0 0 1 31 255 99 67 0 92 100 97 0 +.00537982225484685 0
 .000921125619026367 0 1 0 0 0 1 .02229773300491485 16 92 49 0 ?35 98 101 99 0 0
 1 30 100 68 0 101 102 99 0 +.01798101025484685 0 -.02137660738588845 -1 0 0 16
 101 53 0 ?103 92 104 100 0 0 1 30 102 69 0 104 105 100 0 +.01798101025484685 0
 -.02137660738588845 0 0 -1 16 104 57 0 ?24 101 106 102 0 0 1 30 105 5 0 95 107
 102 0 +.01798101025484685 .028 -.02137660738588845 0 0 -1 16 95 4 0 ?54 27 98 1
05 0 0 1 30 107 289 0 108 109 105 0 +.01798101025484685 .0254 -.0233766073858884
5 0 1 0 16 108 187 0 ?110 111 112 107 0 0 1 30 109 290 0 111 113 107 0 +.0053798
2225484685 .0254 -.02337660738588845 0 1 0 16 111 183 0 ?51 114 108 109 0 0 1 30
 113 291 0 114 115 109 0 +.00537982225484685 .0254 .0252188586239412 0 1 0 16 11
4 179 0 ?48 106 111 113 0 0 1 30 115 292 0 106 116 113 0 +.01798101025484685 .02
54 .0252188586239412 0 1 0 16 106 175 0 ?117 104 114 115 0 0 1 30 116 295 0 88 1
18 115 0 +.00537982225484685 .028 .0252188586239412 1 0 -275326973294392e-30 16
 88 214 0 ?119 81 120 116 0 0 1 31 118 296 0 120 121 116 0 +.00537982225484685 .
028 .000921125619026367 0 1 0 0 0 1 .02429773300491485 16 120 211 0 ?122 88 123
 118 0 0 1 30 121 297 0 123 124 118 0 +.01798101025484685 .028 -.023376607385888
45 -1 0 0 16 123 208 0 ?125 120 0 121 0 0 1 30 124 302 0 112 126 121 0 +.0179810
1025484685 .0254 .0232188586239412 0 0 -1 16 112 168 0 ?25 108 127 124 0 0 1 30
 126 303 0 127 128 124 0 +.00537982225484685 .0254 .0252188586239412 1 0 -275326
973294392e-30 16 127 172 0 ?129 112 130 126 0 0 1 31 128 304 0 130 131 126 0 +.0
0537982225484685 .0254 .000921125619026367 0 1 0 0 0 1 .02429773300491485 16 130
 176 0 ?132 127 133 128 0 0 1 30 131 305 0 133 134 128 0 +.01798101025484685 .02
54 -.02337660738588845 -1 0 0 16 133 180 0 ?135 130 136 131 0 0 1 30 134 306 0 1
36 137 131 0 +.01798101025484685 .0254 -.02337660738588845 0 0 -1 16 136 184 0 ?
138 133 83 134 0 0 1 30 137 307 0 83 86 134 0 +.01798101025484685 .0254 -.021376
60738588845 1 0 0 16 83 188 0 ?82 136 78 137 0 0 1 31 86 308 0 78 89 137 0 +.005
37982225484685 .0254 .000921125619026367 0 -1 0 0 0 1 .02229773300491485 30 89 3
09 0 81 0 86 0 +.00537982225484685 .0254 .0232188586239412 -1 0 275326973294392e
-30 17 82 0 139 19 85 69 74 83 0 140 +15 139 159 0 82 12 0 17 19 0 139 103 82 37
 140 9 0 141 +17 85 0 139 82 103 72 36 20 0 0 -17 140 0 23 138 24 69 19 9 0 0 -1
5 23 84 0 24 14 0 17 138 0 23 110 140 66 71 136 0 0 +17 24 0 23 140 21 37 142 10
4 0 0 +17 142 0 143 93 141 10 24 104 0 0 -15 143 44 0 142 144 0 17 93 0 143 91 1
42 22 28 98 0 0 -17 141 0 143 142 91 37 103 101 0 24 -17 91 0 143 141 93 30 35 9
2 0 0 -17 103 0 139 85 19 30 141 101 0 91 +17 28 0 31 26 29 10 93 98 0 142 +14 2
55 144 43 145 ?146 147 143 4 148 -0 0 146 147 18 81 255 1 145 412 149 144 150 0
 0 151 152 14 146 244 151 ?153 144 154 4 155 +0 0 153 144 18 14 147 1 156 ?144 1
4 157 4 158 +0 0 144 14 18 50 148 65 0 144 158 159 0 +.00537982225484685 0 .0009
21125619026367 0 1 0 0 0 1 13 18 29 0 0 0 0 0 0 8 12 14 12 161 160 ?90 0 139 4 1
5 -0 0 90 0 18 81 1 160 415 149 12 161 0 156 162 163 14 90 153 162 ?87 12 84 4 1
64 -0 0 87 12 18 50 15 88 0 12 164 5 0 +.01798101025484685 .028 -.02137660738588
845 0 0 1 1 0 0 51 255 164 87 0 90 159 15 0 -.00537982225484685 .028 .0009211256
19026367 0 -1 0 .02229773300491485 0 0 -1 50 159 86 0 87 148 164 0 +.00537982225
484685 .028 .0232188586239412 -275326973294392e-30 0 -1 -1 0 275326973294392e-30
 14 87 145 165 ?14 90 31 4 159 -0 0 14 90 18 81 1 165 417 149 87 166 0 162 167 1
68 14 14 85 167 ?147 87 23 4 5 -0 0 147 87 18 81 1 167 418 149 14 169 0 165 170
 171 80 255 1 149 172 173 9000 1 1 1 1 1 1 1 1 0 FFFFTFTFFFFFFF1 81 1 169 380 17
4 14 0 167 166 175 176 81 1 170 419 149 153 177 0 167 178 179 82 255 1 171 -1248
853880 14 153 248 170 ?180 146 181 4 182 +0 0 180 146 18 81 1 177 384 174 153 0
 170 183 184 185 81 1 178 420 149 180 184 0 170 186 187 82 1 179 -313786232 14 1
80 252 178 ?79 153 188 4 189 +0 0 79 153 18 81 1 184 385 174 180 0 178 177 190 1
91 81 1 186 421 149 79 190 0 178 0 192 82 1 187 -313655160 14 79 268 186 ?0 180
 76 4 193 -0 0 0 180 18 81 1 190 386 174 79 0 186 184 0 194 82 1 192 -326107000
 80 1 174 0 195 8001 0 0 0 0 3 5 0 0 0 FFFFTFTFFFFFFF2 83 255 3 194 .79215686274
5098 .819607843137255 .933333333333333 79 255 15 195 SDL/TYSA_COLOUR50 193 285 0
 79 0 155 0 +.00537982225484685 .0254 .000921125619026367 0 1 0 0 0 1 50 155 282
 0 146 193 182 0 +.00537982225484685 .0254 .0252188586239412 275326973294392e-30
 0 1 1 0 -275326973294392e-30 51 182 281 0 153 155 189 0 +.00537982225484685 .02
54 .000921125619026367 0 1 0 .02429773300491485 0 0 1 50 189 280 0 180 182 158 0
 +.01798101025484685 .0254 -.02337660738588845 0 0 -1 -1 0 0 50 158 2 0 147 189
 148 0 +.00537982225484685 .028 .000921125619026367 0 1 0 0 0 1 83 3 191 .792156
862745098 .819607843137255 .933333333333333 15 188 255 0 196 180 0 17 196 0 188
 68 51 52 125 123 0 0 -17 68 0 188 135 196 66 110 108 0 197 -17 51 0 188 196 135
 49 65 111 0 198 +17 125 0 157 122 54 49 196 123 0 0 +15 157 335 0 119 147 0 17
 122 0 157 119 125 46 198 120 0 0 +17 54 0 157 125 119 52 44 95 0 110 +17 119 0
 157 54 122 42 199 88 0 0 +17 44 0 23 59 110 42 54 95 0 117 -17 110 0 23 44 138
 52 68 108 0 196 +17 59 0 23 25 44 57 117 106 0 129 -17 117 0 154 199 129 42 59
 106 0 119 +15 154 247 0 199 146 0 17 199 0 154 62 117 46 119 88 0 122 -17 129 0
 154 117 62 57 200 127 0 80 +17 62 0 154 129 199 60 48 114 0 200 -17 200 0 76 20
1 80 60 129 127 0 132 -17 80 0 76 200 56 57 25 112 0 0 -17 25 0 23 21 59 41 80 1
12 0 26 +17 201 0 76 197 200 63 132 130 0 135 -17 132 0 181 48 65 60 201 130 0 0
 +15 181 251 0 198 153 0 17 48 0 181 198 132 46 62 114 0 199 +17 65 0 181 132 19
8 63 51 111 0 201 -17 198 0 181 65 48 49 122 120 0 125 -17 197 0 76 71 201 66 13
5 133 0 138 -17 135 0 188 51 68 63 197 133 0 0 +17 71 0 76 74 197 69 138 136 0 8
2 -81 1 183 383 174 146 0 151 150 177 202 83 3 185 .792156862745098 .81960784313
7255 .933333333333333 81 1 151 413 149 146 183 0 145 156 203 81 1 150 382 174 14
4 0 145 175 183 204 83 3 202 .792156862745098 .819607843137255 .933333333333333
 81 1 175 381 174 147 0 156 169 150 205 83 3 204 .792156862745098 .8196078431372
55 .933333333333333 81 1 156 414 149 147 175 0 151 160 206 83 3 205 .79215686274
5098 .819607843137255 .933333333333333 82 1 206 -1256193912 82 1 203 -313917304
 81 1 166 379 174 87 0 165 207 169 208 83 3 176 .792156862745098 .81960784313725
5 .933333333333333 81 1 207 378 174 90 0 162 161 166 209 83 3 208 .7921568627450
98 .819607843137255 .933333333333333 81 1 162 416 149 90 207 0 160 165 210 81 1
 161 377 174 12 0 160 0 207 211 83 3 209 .792156862745098 .819607843137255 .9333
33333333333 83 3 211 .792156862745098 .819607843137255 .933333333333333 82 1 210
 -306839416 79 14 173 SWEntUnchanged82 1 168 -307625848 82 1 163 -306052984 82 1
 152 -1250557829 17 36 0 84 35 77 30 85 20 0 103 +19 13 95 0 1 0 8 4 S0 74 4 CI1
6 index_map_offset0 0 1 dCCZ20 11 2 0 0 186 190 0 0 0 0 0 0 0 0 0 0 0 0 0 0 0 0
 0 0 1 0 
