**ABCDEFGHIJKLMNOPQRSTUVWXYZabcdefghijklmnopqrstuvwxyz**************************
**PARASOLID !"#$%&'()*+,-./:;<=>?@[\]^_`{|}~0123456789**************************
**PART1;
MC=AMD64;
MC_MODEL=Intel64 Family 6 Model 60 Stepping 3, GenuineIntel;
MC_ID=unknown;
OS=Windows_NT;
OS_RELEASE=unknown;
FRU=Parasolid Version 29.0, build 195, 12- 2-2016;
APPL=SOLIDWORKS 2017-2017033;
SITE=;
USER=unknown;
FORMAT=text;
GUISE=transmit;
KEY=CAM_GRC18_Pillow_Blocks;
FILE=CAM_GRC18_Pillow_Blocks.x_t;
DATE=Wed Mar 07 12:51:03 2018;
**PART2;
SCH=SCH_2900195_28101;
USFLD_SIZE=0;
**PART3;
**END_OF_HEADER*****************************************************************
T51 : TRANSMIT FILE created by modeller version 290019523 SCH_2900195_28101_1300
6203 0 10 19 CCCCCCCI4 mesh1006 0 I8 polyline1008 0 CCCCCCCCCCZ1 7 2 3 0 0 0 0 0
 0 0 1e3 1e-8 0 0 0 1 0 1 4 81 255 2 2 7 5 1 0 0 0 0 0 0 70 11 CI9 list_type0 0
 1 uI10 notransmit0 0 1 lCCCDCCDI12 finger_index0 0 1 dI12 finger_block1012 0 CZ
3 0 4 T1 0 0 1 20 1 6 6 11 255 4 5 0 1 7 8 1 9 0 0 0 12 33 CCCCCCI4 mesh1006 0 I
8 polyline1008 0 CCCCCCCDI5 owner1040 0 CCCCCCI13 boundary_mesh1006 0 I17 bounda
ry_polyline1008 0 CCCA16 index_map_offset0 0 1 dA9 index_map82 0 A17 node_id_ind
ex_map82 0 A20 schema_embedding_map82 0 A5 child12 0 A14 lowest_node_id0 0 1 dZ7
 234 10 11 0 0 0 0 0 0 1e3 1e-8 4 12 0 1 0 1 1 13 14 15 16 0 0 17 18 19 0 0 0 0
 0 0 100 255 8 6 4 0 0 1 0 0 0 1 0 0 0 1 0 0 0 1 0 ?11 9 3 0 1 12 20 1 21 4 0 0
 12 12 1703 22 23 0 0 0 0 0 0 1e3 1e-8 9 24 7 1 0 1 1 25 26 27 28 0 0 29 30 31 0
 0 0 0 0 0 100 20 4 9 0 0 1 0 0 0 1 0 0 0 1 0 0 0 1 0 ?11 21 1 0 1 24 32 1 0 9 0
 0 12 24 198 33 34 0 0 0 0 0 0 1e3 1e-8 21 35 12 1 0 1 1 36 37 38 39 0 0 40 41 4
2 0 0 0 0 0 0 100 32 2 21 0 0 1 0 0 0 1 0 0 0 1 0 0 0 1 0 ?81 1 33 198 43 24 44
 0 0 0 0 70 34 0 4 T24 0 0 4 20 1 45 45 13 255 36 8 0 24 0 46 0 0 47 0 50 255 37
 109 0 48 49 0 0 +-.05495625 0 .02718125 0 1 0 0 0 1 30 255 38 110 0 50 51 0 0 +
-.05495625 0 -.01781875 1 0 0 29 255 39 107 0 52 53 0 .04995625 0 -.01781875 19
 8 CCCCCCCA5 owner12 0 Z40 6 0 24 47 0 54 V0 16 255 41 26 0 ?55 0 50 56 0 0 24 1
8 255 42 34 0 55 0 57 58 ?24 17 255 55 0 59 60 61 42 62 41 0 63 +18 57 33 0 61 4
2 52 64 ?24 29 58 104 0 42 65 64 .02331875 0 815538227807191e-33 29 65 103 0 66
 67 58 .04995625 .0127 -.01781875 29 64 105 0 57 58 53 .04995625 0 0 29 53 106 0
 68 64 39 .02331875 0 -.01781875 18 68 31 0 60 52 69 53 ?24 17 60 0 59 70 55 68
 63 71 0 72 +18 52 32 0 70 57 68 39 ?24 18 69 30 0 73 68 66 74 ?24 17 73 0 75 76
 72 69 77 78 0 79 -18 66 29 0 80 69 81 65 ?24 29 74 100 0 69 0 82 .02331875 .012
7 -.01781875 29 82 101 0 83 74 67 .02331875 .0127 815538227807191e-33 18 83 27 0
 84 81 0 82 ?24 29 67 102 0 81 82 65 .04995625 .0127 0 18 81 28 0 85 66 83 67 ?2
4 17 85 0 86 87 62 81 88 89 0 90 -15 255 86 57 0 62 91 0 17 87 0 86 92 85 83 93
 94 0 95 +17 62 0 86 85 92 57 55 41 0 88 -17 88 0 96 97 90 57 85 89 0 0 +16 89 1
7 0 ?88 98 99 100 0 0 24 17 90 0 96 88 80 81 101 102 0 93 +15 96 62 0 88 103 0 1
7 80 0 96 90 97 66 104 105 0 101 -17 101 0 106 107 93 66 90 102 0 76 -16 102 19
 0 ?90 105 98 108 0 0 24 17 93 0 106 101 95 81 87 94 0 0 -15 106 50 0 107 109 0
 17 95 0 106 93 107 83 79 110 0 0 -16 94 15 0 ?87 99 78 111 0 0 24 16 99 16 0 ?9
2 89 94 112 0 0 24 16 78 14 0 ?77 94 110 113 0 0 24 31 255 111 93 0 94 114 108 0
 +.0366375 .0127 0 0 -1 0 0 0 1 .01331875 30 114 92 0 110 56 111 0 +.02331875 .0
127 -.01331875 0 0 -1 30 108 94 0 102 111 115 0 +.04995625 .0127 -.01331875 0 0
 1 30 115 95 0 116 108 117 0 +.04995625 .0127 -.01781875 1 0 0 16 116 21 0 ?76 7
1 105 115 0 0 24 31 117 96 0 118 115 119 0 +.0366375 0 0 0 -1 0 0 0 1 .00925 16
 118 10 0 ?120 121 122 117 0 0 24 31 119 97 0 123 117 124 0 +.0366375 .0127 0 0
 -1 0 0 0 1 .01031875 16 123 12 0 ?125 110 121 119 0 0 24 31 124 98 0 121 119 51
 0 +.0366375 .0015875 0 0 -1 0 0 0 1 .01031875 16 121 11 0 ?126 123 118 124 0 0
 24 30 51 99 0 98 124 38 0 +.04995625 0 .02718125 0 0 -1 16 98 18 0 ?97 102 89 5
1 0 0 24 17 97 0 96 80 88 52 61 98 0 104 +17 61 0 59 55 70 57 97 98 0 62 -17 104
 0 75 72 76 52 80 105 0 0 +15 75 72 0 104 127 0 17 72 0 75 73 104 68 70 50 0 77
 -17 76 0 75 104 73 66 107 116 0 0 +16 105 20 0 ?104 116 102 128 0 0 24 30 128 8
6 0 105 129 100 0 +.04995625 .0127 -.01781875 0 -1 0 31 129 85 0 122 0 128 0 +.0
366375 .0015875 0 0 -1 0 0 0 1 .00925 30 100 87 0 89 128 112 0 +.04995625 .0127
 0 0 -1 0 30 112 88 0 99 100 113 0 +.02331875 .0127 815538227807191e-33 0 -1 0 3
0 113 89 0 78 112 130 0 +.02331875 .0127 -.01781875 0 -1 0 30 130 90 0 71 113 56
 0 +.02331875 0 -.01781875 0 0 -1 16 71 22 0 ?60 50 116 130 0 0 24 31 56 91 0 41
 130 114 0 +.0366375 0 0 0 -1 0 0 0 1 .01331875 16 50 23 0 ?70 41 71 38 0 0 24 1
7 70 0 59 61 60 52 72 50 0 97 +15 59 76 0 60 48 131 14 255 48 73 132 ?0 127 59 3
6 37 -0 0 0 127 54 15 131 77 0 133 48 0 17 133 0 131 133 133 0 120 118 0 0 -17 1
20 0 134 120 120 0 133 118 0 0 +15 134 41 0 120 135 136 14 135 39 137 ?138 46 13
4 36 139 +0 0 138 46 54 15 136 42 0 140 135 0 17 140 0 136 140 140 0 141 122 0 0
 -17 141 0 142 141 141 0 140 122 0 0 +16 122 9 0 ?141 118 0 129 0 0 24 15 142 37
 0 141 46 143 14 46 35 144 ?135 0 142 36 145 +0 0 135 0 54 15 143 38 0 146 46 0
 17 146 0 143 146 146 0 126 121 0 0 -17 126 0 147 126 126 0 146 121 0 0 +15 147
 45 0 126 138 148 14 138 43 149 ?109 135 147 36 150 -0 0 109 135 54 15 148 46 0
 151 138 0 17 151 0 148 151 151 0 125 123 0 0 -17 125 0 152 125 125 0 151 123 0
 0 +15 152 49 0 125 109 106 14 109 47 153 ?154 138 152 36 155 +0 0 154 138 54 81
 1 153 193 156 109 157 0 149 158 159 14 154 51 158 ?91 109 160 36 161 -0 0 91 10
9 54 50 155 81 0 109 161 139 0 +.0366375 .0127 0 0 1 0 0 0 1 13 54 7 0 0 0 0 0 0
 40 46 50 161 80 0 154 162 155 0 +.02331875 .0127 -.01781875 1 0 0 0 0 1 51 255
 139 82 0 135 155 150 0 -.0366375 .0127 0 0 -1 0 .00925 0 0 -1 51 150 83 0 138 1
39 145 0 +.0366375 .0015875 0 0 1 0 .01031875 0 0 1 50 145 84 0 46 150 49 0 +.03
66375 .0015875 0 0 1 0 0 0 1 50 49 108 0 127 145 37 0 +-.01331875 .0127 -.017818
75 0 0 1 1 0 0 14 127 63 163 ?48 103 75 36 49 -0 0 48 103 54 81 1 163 195 156 12
7 164 0 158 165 166 14 103 58 165 ?127 91 96 36 167 -0 0 127 91 54 81 1 165 196
 156 103 168 0 163 169 170 14 91 55 169 ?103 154 86 36 162 -0 0 103 154 54 50 16
7 78 0 103 0 162 0 +.04995625 .0127 0 -1 0 0 0 0 -1 51 162 79 0 91 167 161 0 -.0
366375 .0127 0 0 -1 0 .01331875 0 0 -1 81 1 169 197 156 91 171 0 165 0 172 80 25
5 1 156 173 174 9000 1 1 1 1 1 1 1 1 0 FFFFTFTFFFFFFF1 81 1 171 155 175 91 0 169
 176 168 177 82 255 1 172 -1109851947 80 1 175 0 178 8001 0 0 0 0 3 5 0 0 0 FFFF
TFTFFFFFFF2 81 1 176 154 175 154 0 158 157 171 179 81 1 168 156 175 103 0 165 17
1 164 180 83 255 3 177 .898039215686275 .917647058823529 .929411764705882 81 1 1
64 157 175 127 0 163 168 181 182 83 3 180 .898039215686275 .917647058823529 .929
411764705882 81 1 181 158 175 48 0 132 164 0 183 83 3 182 .898039215686275 .9176
47058823529 .929411764705882 81 1 132 189 156 48 181 0 0 137 184 83 3 183 .89803
9215686275 .917647058823529 .929411764705882 81 1 137 190 156 135 185 0 132 144
 186 82 1 184 -825884459 81 1 185 151 175 135 0 137 187 188 189 81 1 144 191 156
 46 187 0 137 149 190 82 1 186 -1110507307 81 1 187 150 175 46 0 144 0 185 191 8
1 1 149 192 156 138 188 0 144 153 192 82 1 190 -1107885867 81 1 188 152 175 138
 0 149 185 157 193 82 1 192 -1108148011 81 1 157 153 175 109 0 153 188 176 194 8
3 3 193 .898039215686275 .917647058823529 .929411764705882 83 3 194 .89803921568
6275 .917647058823529 .929411764705882 83 3 191 .898039215686275 .91764705882352
9 .929411764705882 83 3 189 .898039215686275 .917647058823529 .929411764705882 8
1 1 158 194 156 154 176 0 153 163 195 83 3 179 .898039215686275 .917647058823529
 .929411764705882 82 1 195 -1109983019 79 255 15 178 SDL/TYSA_COLOUR79 14 174 SW
EntUnchanged82 1 170 -1109720875 82 1 166 -820313899 15 160 54 0 63 154 0 17 63
 0 160 84 77 42 60 71 0 92 -17 84 0 160 79 63 83 92 99 0 87 -17 77 0 160 63 79 6
8 73 78 0 0 +17 92 0 86 62 87 42 84 99 0 0 +17 79 0 160 77 84 69 95 110 0 107 +1
6 110 13 0 ?79 78 123 114 0 0 24 17 107 0 106 95 101 69 76 116 0 0 -82 1 159 -11
10376235 19 47 1 0 24 0 40 36 S0 74 4 CI16 index_map_offset0 0 1 dCCZ20 45 4 0 0
 169 44 181 33 0 0 0 0 0 0 0 0 0 0 0 0 0 0 0 0 81 2 44 136 196 24 0 33 0 0 197 0
 80 2 196 198 199 8004 0 0 0 0 3 5 0 0 0 FFTFFFFFFFFFFT2 3 83 1 197 1 79 16 199
 SDL/TYSA_DENSITY80 1 43 200 201 8017 0 0 0 0 0 0 0 0 0 TTTTTTTTTTTTTF3 79 13 20
1 SDL/TYSA_NAME81 1 22 1703 43 12 202 0 0 0 0 70 23 0 4 T12 0 0 4 20 1 203 203 1
3 25 1610 0 12 0 204 0 0 205 0 50 26 127 0 206 207 0 0 +-.01331875 .0127 -.01781
875 0 0 1 1 0 0 31 27 633 0 208 209 0 0 +-.0366375 .0015875 0 0 -1 0 0 0 1 .0092
5 29 28 661 0 31 210 0 -.04995625 .0127 -.01781875 19 29 1612 0 12 205 0 211 V0
 16 30 512 0 ?212 0 213 209 0 0 12 18 31 537 0 214 0 215 28 ?12 17 214 0 216 217
 218 31 219 220 0 221 -18 215 543 0 222 31 223 210 ?12 17 222 0 224 221 225 215
 226 227 0 228 -18 223 541 0 229 215 230 231 ?12 29 210 662 0 215 231 28 -.04995
625 .0127 815538227807191e-33 29 231 663 0 223 232 210 -.02331875 .0127 0 29 232
 664 0 230 233 231 -.02331875 .0127 -.01781875 18 230 539 0 234 223 235 232 ?12
 29 233 665 0 235 236 232 -.04995625 0 815538227807191e-33 18 235 542 0 237 230
 238 233 ?12 29 236 1573 0 238 239 233 -.02331875 0 0 18 238 1461 0 240 235 241
 236 ?12 29 239 1582 0 241 242 236 -.02331875 0 -.01781875 18 241 1454 0 243 238
 244 239 ?12 29 242 1583 0 244 0 239 -.04995625 0 -.01781875 18 244 1463 0 245 2
41 0 242 ?12 17 245 0 246 243 237 244 225 247 0 218 +15 246 1491 0 237 248 249 1
7 243 0 246 240 245 241 218 250 0 251 +17 237 0 246 245 240 235 252 253 0 225 +1
7 225 0 224 222 219 235 245 247 0 226 -16 247 527 0 ?245 254 253 255 0 0 12 17 2
18 0 216 214 212 244 243 250 0 219 -15 216 120 0 212 206 0 17 212 0 216 218 217
 241 234 30 0 0 +16 250 1428 0 ?243 256 0 257 0 0 12 17 219 0 224 225 221 244 21
4 220 0 0 +15 224 581 0 225 258 0 17 221 0 224 219 222 31 259 260 0 261 +16 220
 518 0 ?219 227 260 262 0 0 12 16 227 516 0 ?226 213 220 263 0 0 12 16 260 517 0
 ?221 220 264 265 0 0 12 30 262 637 0 220 255 263 0 +-.04995625 .0127 -.01781875
 0 -1 0 30 255 638 0 247 266 262 0 +-.04995625 0 -.01781875 0 0 -1 30 263 636 0
 227 262 267 0 +-.04995625 .0127 815538227807191e-33 0 -1 0 30 267 635 0 213 263
 209 0 +-.02331875 .0127 0 0 -1 0 16 213 514 0 ?268 30 227 267 0 0 12 30 209 634
 0 30 267 27 0 +-.02331875 .0127 -.01781875 0 -1 0 17 268 0 269 251 270 238 229
 213 0 0 +15 269 572 0 251 271 0 17 251 0 269 234 268 241 240 272 0 212 -17 270
 0 269 268 234 223 273 274 0 275 +17 229 0 276 228 252 223 268 213 0 270 -15 276
 576 0 252 277 0 17 228 0 276 226 229 215 275 264 0 259 +17 252 0 276 229 226 23
8 237 253 0 268 -17 226 0 276 252 228 235 222 227 0 0 +16 253 532 0 ?237 247 272
 266 0 0 12 16 272 531 0 ?240 253 208 278 0 0 12 31 266 639 0 253 278 255 0 +-.0
366375 0 0 0 -1 0 0 0 1 .01331875 30 278 640 0 272 265 266 0 +-.02331875 0 0 0 0
 1 30 265 641 0 260 279 278 0 +-.04995625 .0127 -.01331875 0 0 -1 31 279 642 0 2
64 280 265 0 +-.0366375 .0127 0 0 -1 0 0 0 1 .01331875 16 264 515 0 ?228 260 274
 279 0 0 12 30 280 643 0 274 281 279 0 +-.02331875 .0127 -.01331875 0 0 1 16 274
 513 0 ?270 264 254 280 0 0 12 30 281 644 0 254 282 280 0 +-.02331875 .0127 -.01
781875 1 0 0 16 254 511 0 ?217 274 247 281 0 0 12 31 282 645 0 256 283 281 0 +-.
0366375 0 0 0 -1 0 0 0 1 .00925 16 256 1396 0 ?284 285 250 282 0 0 12 31 283 646
 0 285 286 282 0 +-.0366375 .0127 0 0 -1 0 0 0 1 .01031875 16 285 510 0 ?287 288
 256 283 0 0 12 31 286 647 0 288 257 283 0 +-.0366375 .0015875 0 0 -1 0 0 0 1 .0
1031875 16 288 519 0 ?289 208 285 286 0 0 12 30 257 1563 0 250 0 286 0 +-.054956
25 0 -.01781875 1 0 0 17 289 0 290 289 289 0 291 288 0 0 +16 208 520 0 ?292 272
 288 27 0 0 12 17 292 0 293 292 292 0 294 208 0 0 +15 293 590 0 292 204 295 17 2
94 0 296 294 294 0 292 208 0 0 -15 296 557 0 294 297 0 14 297 553 298 ?299 204 3
00 25 301 +0 0 299 204 211 81 1 298 1694 156 297 302 0 0 303 304 14 299 582 303
 ?305 297 290 25 306 -0 0 305 297 211 14 204 587 307 ?297 0 293 25 308 +0 0 297
 0 211 15 300 556 0 284 297 296 51 301 625 0 297 306 309 0 --.0366375 .0127 0 0
 -1 0 .00925 0 0 -1 13 211 1611 0 0 0 0 0 0 29 204 51 306 626 0 299 308 301 0 +-
.0366375 .0015875 0 0 1 0 .01031875 0 0 1 50 309 624 0 305 301 310 0 +-.0366375
 .0127 0 0 1 0 0 0 1 14 305 558 311 ?258 299 312 25 309 +0 0 258 299 211 50 310
 623 0 258 309 313 0 +-.04995625 .0127 -.01781875 1 0 0 0 0 1 14 258 577 314 ?27
7 305 224 25 310 -0 0 277 305 211 51 313 622 0 277 310 207 0 --.0366375 .0127 0
 0 -1 0 .01331875 0 0 -1 14 277 573 315 ?271 258 276 25 313 -0 0 271 258 211 50
 207 621 0 271 313 26 0 +-.02331875 .0127 0 -1 0 0 0 0 -1 14 271 568 316 ?206 27
7 269 25 207 -0 0 206 277 211 81 1 316 1700 156 271 317 0 315 318 319 14 206 121
 318 ?248 271 216 25 26 -0 0 248 271 211 81 1 318 1701 156 206 320 0 316 321 322
 14 248 1488 321 ?0 206 246 25 323 -0 0 0 206 211 81 1 321 1702 156 248 324 0 31
8 0 325 50 323 1540 0 248 0 308 0 +-.05495625 0 .02718125 0 1 0 0 0 1 50 308 627
 0 204 323 306 0 +-.0366375 .0015875 0 0 1 0 0 0 1 81 1 324 1664 175 248 0 321 3
20 0 326 82 1 325 -825360171 81 1 320 1663 175 206 0 318 317 324 327 83 3 326 .8
98039215686275 .917647058823529 .929411764705882 81 1 317 1662 175 271 0 316 328
 320 329 83 3 327 .898039215686275 .917647058823529 .929411764705882 81 1 328 16
61 175 277 0 315 330 317 331 83 3 329 .898039215686275 .917647058823529 .9294117
64705882 81 1 315 1699 156 277 328 0 314 316 332 81 1 330 1660 175 258 0 314 333
 328 334 83 3 331 .898039215686275 .917647058823529 .929411764705882 81 1 314 16
98 156 258 330 0 311 315 335 81 1 333 1659 175 305 0 311 336 330 337 83 3 334 .8
98039215686275 .917647058823529 .929411764705882 81 1 311 1697 156 305 333 0 307
 314 338 81 1 336 1658 175 299 0 303 302 333 339 83 3 337 .898039215686275 .9176
47058823529 .929411764705882 81 1 303 1695 156 299 336 0 298 307 340 81 1 302 16
57 175 297 0 298 341 336 342 83 3 339 .898039215686275 .917647058823529 .9294117
64705882 81 1 341 1656 175 204 0 307 0 302 343 83 3 342 .898039215686275 .917647
058823529 .929411764705882 81 1 307 1696 156 204 341 0 303 311 344 83 3 343 .898
039215686275 .917647058823529 .929411764705882 82 1 344 -1542127411 82 1 340 -15
42324019 82 1 338 -1543765811 82 1 335 -1079246635 82 1 332 -1079050027 82 1 322
 -1077935915 82 1 319 -1074200363 15 312 561 0 287 305 345 17 287 0 312 287 287
 0 346 285 0 0 +15 345 562 0 261 305 0 17 261 0 345 259 273 31 217 254 0 0 -17 2
59 0 345 275 261 215 221 260 0 0 -17 273 0 345 261 275 230 270 274 0 217 -17 217
 0 216 212 214 230 261 254 0 0 +17 275 0 345 273 259 223 228 264 0 0 -17 346 0 3
47 346 346 0 287 285 0 0 -15 347 586 0 346 299 0 17 284 0 300 284 284 0 348 256
 0 0 +17 348 0 249 348 348 0 284 256 0 0 -15 249 1492 0 348 248 0 15 290 585 0 2
89 299 347 82 1 304 -1543569203 15 295 591 0 291 204 0 17 291 0 295 291 291 0 28
9 288 0 0 -17 240 0 246 237 243 238 251 272 0 252 +17 234 0 269 270 251 230 212
 30 0 273 -19 205 135 0 12 0 29 25 S0 74 20 203 4 0 0 321 202 324 22 0 0 0 0 0 0
 0 0 0 0 0 0 0 0 0 0 81 2 202 1642 196 12 0 22 0 0 349 0 83 1 349 1 81 1 10 234
 43 7 0 0 0 0 0 70 11 0 4 T7 0 0 3 20 1 350 350 13 13 8 0 7 0 351 0 0 352 0 50 1
4 108 0 353 354 0 0 +-.05495625 0 .02718125 0 1 0 0 0 1 30 15 109 0 18 355 0 0 +
-.05495625 0 -.01781875 1 0 0 29 16 106 0 19 356 0 -.01331875 0 -.01781875 19 17
 6 0 7 352 0 357 V0 16 18 24 0 ?358 0 359 15 0 0 7 18 19 34 0 360 0 361 16 ?7 17
 360 0 362 358 363 19 364 365 0 366 -18 361 33 0 363 19 367 368 ?7 17 363 0 362
 360 369 361 370 371 0 364 -18 367 32 0 369 361 372 356 ?7 29 368 104 0 361 373
 356 -.01331875 0 0 29 373 103 0 372 374 368 .01331875 0 -.01781875 29 356 105 0
 367 368 16 .01331875 0 0 18 372 31 0 358 367 375 373 ?7 29 374 102 0 375 376 37
3 -.01331875 .0127 -.01781875 18 375 30 0 377 372 378 374 ?7 29 376 101 0 379 38
0 374 -.01331875 .0127 0 18 379 27 0 381 382 0 376 ?7 29 380 100 0 382 383 376 .
01331875 .0127 815538227807191e-33 18 382 28 0 384 378 379 380 ?7 29 383 99 0 37
8 0 380 .01331875 .0127 -.01781875 18 378 29 0 385 375 382 383 ?7 17 385 0 386 3
87 384 378 388 389 0 390 +15 386 52 0 387 391 0 17 387 0 386 381 385 375 392 393
 0 394 +17 384 0 386 385 381 382 395 396 0 397 +17 388 0 398 399 390 382 385 389
 0 0 -16 389 14 0 ?385 365 396 400 0 0 7 17 390 0 398 388 401 378 402 403 0 392
 -15 398 63 0 401 404 0 17 401 0 398 390 399 372 369 405 0 402 +17 402 0 406 366
 392 372 390 403 0 0 +16 403 9 0 ?402 407 0 408 0 0 7 17 392 0 406 402 394 378 3
87 393 0 0 -15 406 44 0 402 351 0 17 394 0 406 392 366 375 409 410 0 0 -16 393 1
1 0 ?387 411 407 412 0 0 7 16 411 12 0 ?381 396 393 413 0 0 7 16 407 10 0 ?414 3
93 403 415 0 0 7 30 412 95 0 393 413 416 0 +-.01331875 .0127 -.01781875 -1 0 0 3
0 413 94 0 411 417 412 0 +-.01331875 .0127 -.01331875 0 0 1 31 416 96 0 359 412
 418 0 +0 0 0 0 1 0 0 0 1 .00925 16 359 23 0 ?419 18 420 416 0 0 7 31 418 97 0 4
21 416 355 0 +0 .0127 0 0 1 0 0 0 1 .01031875 16 421 21 0 ?422 420 423 418 0 0 7
 31 355 98 0 420 418 15 0 +0 .0015875 0 0 1 0 0 0 1 .01031875 16 420 22 0 ?424 3
59 421 355 0 0 7 17 424 0 425 424 424 0 426 420 0 0 +15 425 71 0 424 427 0 17 42
6 0 428 426 426 0 424 420 0 0 -15 428 66 0 426 429 430 14 429 64 431 ?427 404 42
8 13 432 -0 0 427 404 357 15 430 67 0 422 429 0 17 422 0 430 422 422 0 433 421 0
 0 +17 433 0 434 433 433 0 422 421 0 0 -15 434 51 0 433 391 386 14 391 49 435 ?4
36 437 434 13 438 +0 0 436 437 357 81 1 435 226 156 391 439 0 431 440 441 14 436
 53 440 ?442 391 443 13 444 -0 0 442 391 357 14 437 45 445 ?391 351 446 13 447 +
0 0 391 351 357 50 438 80 0 391 448 447 0 +0 .0127 0 0 1 0 0 0 1 13 357 7 0 0 0
 0 0 0 17 351 14 351 35 449 ?437 0 406 13 354 -0 0 437 0 357 81 1 449 229 156 35
1 450 0 445 451 452 50 354 107 0 351 453 14 0 +-.01331875 .0127 -.01781875 0 0 1
 1 0 0 50 453 83 0 427 432 354 0 +0 .0015875 0 0 1 0 0 0 1 14 427 68 451 ?353 42
9 454 13 453 +0 0 353 429 357 51 432 82 0 429 447 453 0 +0 .0015875 0 0 1 0 .010
31875 0 0 1 51 447 81 0 437 438 432 0 -0 .0127 0 0 -1 0 .00925 0 0 -1 81 1 451 2
30 156 427 455 0 449 456 457 14 353 72 456 ?0 427 458 13 14 -0 0 0 427 357 15 45
4 70 0 459 427 425 17 459 0 454 459 459 0 414 407 0 0 -17 414 0 460 414 414 0 45
9 407 0 0 +15 460 48 0 414 437 0 81 1 456 231 156 353 461 0 451 462 463 15 458 7
5 0 419 353 362 17 419 0 458 419 419 0 464 359 0 0 +15 362 76 0 358 353 0 17 358
 0 362 369 360 372 366 18 0 401 +17 369 0 362 363 358 367 401 405 0 370 -17 366
 0 406 394 402 19 358 18 0 409 -17 409 0 443 364 377 19 394 410 0 0 +15 443 56 0
 364 436 0 17 364 0 443 465 409 361 360 365 0 466 +17 377 0 443 409 465 375 381
 411 0 387 -16 410 16 0 ?409 371 365 467 0 0 7 16 371 17 0 ?370 468 410 469 0 0
 7 16 365 15 0 ?364 410 389 470 0 0 7 30 467 85 0 410 415 471 0 +-.01331875 .012
7 -.01781875 0 -1 0 31 415 84 0 407 0 467 0 +0 .0015875 0 0 1 0 0 0 1 .00925 30
 471 86 0 468 467 472 0 +-.01331875 .0127 0 0 -1 0 16 468 18 0 ?466 405 371 471
 0 0 7 30 472 87 0 423 471 408 0 +.01331875 .0127 815538227807191e-33 0 -1 0 16
 423 20 0 ?399 421 405 472 0 0 7 30 408 88 0 403 472 473 0 +.01331875 .0127 -.01
781875 0 -1 0 30 473 89 0 405 408 469 0 +.01331875 0 -.01781875 0 0 -1 16 405 19
 0 ?401 423 468 473 0 0 7 31 469 90 0 371 473 470 0 +0 0 0 0 1 0 0 0 1 .01331875
 30 470 91 0 365 469 400 0 +-.01331875 0 0 0 0 1 30 400 92 0 389 470 417 0 +.013
31875 .0127 -.01331875 0 0 -1 31 417 93 0 396 400 413 0 +0 .0127 0 0 1 0 0 0 1 .
01331875 16 396 13 0 ?384 389 411 417 0 0 7 17 399 0 398 401 388 367 397 423 0 0
 +17 397 0 474 395 370 382 399 423 0 388 -15 474 59 0 370 442 0 17 395 0 474 466
 397 379 384 396 0 0 -17 370 0 474 397 466 367 363 371 0 399 +17 466 0 474 370 3
95 361 465 468 0 0 +17 465 0 443 377 364 379 466 468 0 395 -14 442 57 462 ?404 4
36 474 13 475 -0 0 404 436 357 81 1 462 232 156 442 476 0 456 477 478 14 404 60
 477 ?429 442 398 13 448 -0 0 429 442 357 51 475 78 0 442 444 448 0 -0 .0127 0 0
 -1 0 .01331875 0 0 -1 50 444 77 0 436 0 475 0 +-.01331875 .0127 0 1 0 0 0 0 -1
 50 448 79 0 404 475 438 0 +.01331875 .0127 -.01781875 -1 0 0 0 0 1 81 1 477 233
 156 404 479 0 462 0 480 81 1 479 192 175 404 0 477 476 481 482 82 1 480 -107832
9131 81 1 476 191 175 442 0 462 483 479 484 81 1 481 193 175 429 0 431 479 455 4
85 83 3 482 .898039215686275 .917647058823529 .929411764705882 81 1 431 225 156
 429 481 0 0 435 486 81 1 455 194 175 427 0 451 481 461 487 83 3 485 .8980392156
86275 .917647058823529 .929411764705882 81 1 461 195 175 353 0 456 455 0 488 83
 3 487 .898039215686275 .917647058823529 .929411764705882 83 3 488 .898039215686
275 .917647058823529 .929411764705882 82 1 486 -1076494123 81 1 483 190 175 436
 0 440 439 476 489 83 3 484 .898039215686275 .917647058823529 .929411764705882 8
1 1 440 227 156 436 483 0 435 445 490 81 1 439 189 175 391 0 435 491 483 492 83
 3 489 .898039215686275 .917647058823529 .929411764705882 81 1 491 188 175 437 0
 445 450 439 493 83 3 492 .898039215686275 .917647058823529 .929411764705882 81
 1 445 228 156 437 491 0 440 449 494 81 1 450 187 175 351 0 449 0 491 495 83 3 4
93 .898039215686275 .917647058823529 .929411764705882 83 3 495 .898039215686275
 .917647058823529 .929411764705882 82 1 494 -1078853419 82 1 490 -1078066987 82
 1 478 -1078198059 17 381 0 386 384 387 379 377 411 0 465 +17 464 0 446 464 464
 0 419 359 0 0 -15 446 47 0 464 437 460 82 1 463 -826408747 82 1 457 -1076231979
 82 1 452 -821165867 82 1 441 -1078722347 19 352 1 0 7 0 17 13 S0 74 20 350 3 0
 0 477 461 10 0 0 0 0 0 0 0 0 0 0 0 0 0 0 0 0 0 74 20 6 1 0 0 2 0 0 0 0 0 0 0 0
 0 0 0 0 0 0 0 0 0 0 0 80 2 5 496 497 9000 0 0 0 0 3 5 0 0 0 TFFFFFFFFFFFFF9 1 7
9 18 497 MULTI_BODY_ID_20011 0 
