**ABCDEFGHIJKLMNOPQRSTUVWXYZabcdefghijklmnopqrstuvwxyz**************************
**PARASOLID !"#$%&'()*+,-./:;<=>?@[\]^_`{|}~0123456789**************************
**PART1;
MC=AMD64;
MC_MODEL=Intel64 Family 6 Model 60 Stepping 3, GenuineIntel;
MC_ID=unknown;
OS=Windows_NT;
OS_RELEASE=unknown;
FRU=Parasolid Version 29.0, build 195, 12- 2-2016;
APPL=SOLIDWORKS 2017-2017033;
SITE=;
USER=unknown;
FORMAT=text;
GUISE=transmit;
KEY=CAM_GRC18_Housing_Main;
FILE=CAM_GRC18_Housing_Main.x_t;
DATE=Sat Mar 03 20:18:02 2018;
**PART2;
SCH=SCH_2900195_28101;
USFLD_SIZE=0;
**PART3;
**END_OF_HEADER*****************************************************************
T51 : TRANSMIT FILE created by modeller version 290019523 SCH_2900195_28101_1300
6203 0 12 33 CCCCCCI4 mesh1006 0 I8 polyline1008 0 CCCCCCCDI5 owner1040 0 CCCCCC
I13 boundary_mesh1006 0 I17 boundary_polyline1008 0 CCCA16 index_map_offset0 0 1
 dA9 index_map82 0 A17 node_id_index_map82 0 A20 schema_embedding_map82 0 A5 chi
ld12 0 A14 lowest_node_id0 0 1 dZ1 1751 0 2 0 0 0 0 0 0 1e3 1e-8 0 3 0 1 0 1 1 4
 5 6 7 0 0 8 9 10 0 0 0 0 0 0 70 11 CI9 list_type0 0 1 uI10 notransmit0 0 1 lCCC
DCCDI12 finger_index0 0 1 dI12 finger_block1012 0 CZ2 0 4 T1 0 0 2 20 1 11 11 13
 255 4 29 0 1 0 12 0 0 13 0 51 255 5 1553 0 14 15 0 0 +.01032 .0570574086844083
 .015 0 0 -1 .00238 -1 0 0 30 255 6 1505 0 9 16 0 0 -.0127 .0570574086844083 -.0
127 0 0 1 29 255 7 1492 0 10 17 0 .0127 .0570574086844083 .0127 19 8 CCCCCCCA5 o
wner12 0 Z8 7 0 1 13 0 18 V0 16 255 9 1503 0 ?19 0 20 6 0 0 1 18 255 10 1490 0 2
1 0 22 7 ?1 17 255 21 0 23 24 25 10 26 27 0 28 +18 22 1481 0 29 10 30 17 ?1 17 2
9 0 31 32 33 22 34 35 0 36 +18 30 1468 0 19 22 37 38 ?1 29 17 1483 0 22 38 7 .01
27 .01394259131559172 .0127 29 38 1470 0 30 39 17 .0127 .0570574086844083 -.0127
 29 39 1467 0 37 40 38 .0127 .01394259131559172 -.0127 18 37 1465 0 41 30 42 39
 ?1 29 40 1454 0 42 43 39 .01147839763015456 .0160216571948876 .0127 18 42 1452
 0 44 37 45 40 ?1 29 43 1451 0 45 46 40 .01147839763015456 .0549783428051125 .01
27 18 45 1449 0 26 42 47 43 ?1 29 46 1448 0 47 48 43 .01147839763015456 .0549783
428051125 -.0127 18 47 1446 0 49 45 50 46 ?1 29 48 1445 0 50 51 46 .011478397630
15456 .0160216571948876 -.0127 18 50 1443 0 52 47 53 48 ?1 29 51 1273 0 53 54 48
 -.01091054535758868 .03962 -.0065 18 53 1271 0 55 50 56 51 ?1 29 54 1270 0 56 5
7 51 -.01091054535758868 .03138 -.0065 18 56 1268 0 58 53 59 54 ?1 29 57 1255 0
 59 60 54 -.01201314280278062 .029 .00412 18 59 1253 0 61 56 62 57 ?1 29 60 1252
 0 62 63 57 -.01201314280278062 .029 -.00412 18 62 1250 0 64 59 65 60 ?1 29 63 1
229 0 65 66 60 -.0161865 .03138 -.0065 18 65 1227 0 67 62 68 63 ?1 29 66 1226 0
 68 69 63 -.0161865 .03962 -.0065 18 68 1224 0 70 65 71 66 ?1 29 69 1223 0 71 72
 66 -.0161865 .029 .00412 18 71 1221 0 73 68 74 69 ?1 29 72 1220 0 74 75 69 -.01
61865 .029 -.00412 18 74 1218 0 76 71 77 72 ?1 29 75 1205 0 77 78 72 -.0161865 .
03962 .0065 18 77 1203 0 79 74 80 75 ?1 29 78 1202 0 80 81 75 -.0161865 .03138 .
0065 18 80 1200 0 82 77 83 78 ?1 29 81 1199 0 83 84 78 -.01091054535758868 .0313
8 .0065 18 83 1197 0 85 80 86 81 ?1 29 84 1196 0 86 87 81 -.01091054535758868 .0
3962 .0065 18 86 1194 0 88 83 89 84 ?1 29 87 1181 0 89 90 84 -.0161865 .042 -.00
412 18 89 1179 0 91 86 92 87 ?1 29 90 1178 0 92 93 87 -.0161865 .042 .00412 18 9
2 1176 0 94 89 95 90 ?1 29 93 1175 0 95 96 90 -.01201314280278062 .042 .00412 18
 95 1173 0 97 92 98 93 ?1 29 96 1172 0 98 99 93 -.01201314280278062 .042 -.00412
 18 98 1170 0 100 95 101 96 ?1 29 99 413 0 101 102 96 0 .008 -.0127 18 101 411 0
 103 98 104 99 ?1 29 102 304 0 104 105 99 .0127 .008 .0127 18 104 302 0 32 101 1
06 102 ?1 29 105 196 0 106 107 102 0 .063 -.0127 18 106 194 0 108 104 109 105 ?1
 29 107 105 0 109 110 105 0 .063 .0127 18 109 103 0 111 106 112 107 ?1 29 110 10
2 0 112 113 107 .0127 .063 0 18 112 100 0 114 109 115 110 ?1 29 113 185 0 115 11
6 110 .0127 .063 .0127 18 115 143 0 117 112 118 113 ?1 29 116 268 0 118 119 113
 .0127 .063 -.0127 18 118 231 0 120 115 121 116 ?1 29 119 404 0 121 122 116 0 .0
08 .0127 18 121 364 0 123 118 124 119 ?1 29 122 506 0 124 125 119 .0127 .008 0 1
8 124 466 0 126 121 127 122 ?1 29 125 507 0 127 0 122 .0127 .008 -.0127 18 127 4
62 0 128 124 0 125 ?1 17 128 0 129 130 41 127 33 131 0 132 +15 255 129 553 0 133
 134 0 17 130 0 129 135 128 101 132 136 0 137 -17 41 0 129 128 133 37 52 138 0 3
3 +17 33 0 31 29 139 37 128 131 0 34 -16 131 1466 0 ?128 140 141 142 140 140 1 1
7 132 0 143 144 103 127 130 136 0 139 +15 143 483 0 103 145 0 17 144 0 143 103 1
32 124 139 146 0 147 +17 103 0 143 132 144 101 126 148 0 130 -16 136 445 0 ?132
 146 148 149 0 0 1 17 139 0 31 33 150 127 144 146 0 0 -15 31 557 0 33 151 0 17 1
50 0 31 139 32 124 152 153 0 0 -16 146 440 0 ?144 154 136 155 0 0 1 16 154 348 0
 ?123 153 146 156 0 0 1 30 155 500 0 146 149 156 0 +.0127 .008 0 0 0 1 30 149 50
1 0 136 157 155 0 +0 .008 -.0127 1 0 0 31 255 156 400 0 154 155 158 0 +0 .008 0
 0 -1 0 0 0 -1 .0127 30 158 399 0 153 156 159 0 +.0127 .008 0 0 0 1 16 153 343 0
 ?152 141 154 158 0 0 1 30 159 398 0 141 158 142 0 +0 .008 .0127 -1 0 0 16 141 3
38 0 ?160 131 153 159 0 0 1 30 142 267 0 140 159 161 0 +.0127 .063 -.0127 0 -1 0
 16 140 207 0 ?162 163 131 142 131 131 1 30 161 265 0 163 142 164 0 +0 .063 -.01
27 0 -1 0 16 163 212 0 ?137 165 140 161 0 0 1 31 164 261 0 166 161 167 0 +0 .063
 0 0 -1 0 0 0 -1 .0127 16 166 220 0 ?168 169 165 164 0 0 1 30 167 260 0 169 164
 170 0 +.0127 .063 0 0 0 -1 16 169 224 0 ?120 171 166 167 0 0 1 30 170 259 0 165
 167 172 0 +0 .063 -.0127 -1 0 0 16 165 217 0 ?173 166 163 170 0 0 1 30 172 179
 0 171 170 174 0 +.0127 .063 0 0 0 -1 16 171 129 0 ?175 176 169 172 0 0 1 30 174
 178 0 176 172 177 0 +0 .063 .0127 1 0 0 16 176 136 0 ?117 178 171 174 0 0 1 31
 177 177 0 178 174 179 0 +0 .063 0 0 -1 0 0 0 -1 .0127 16 178 132 0 ?180 181 176
 177 0 0 1 30 179 172 0 182 177 183 0 +0 .063 .0127 0 -1 0 16 182 128 0 ?184 185
 186 179 0 0 1 30 183 171 0 186 179 187 0 +.0127 .063 .0127 0 -1 0 16 186 119 0
 ?28 182 181 183 181 181 1 31 187 72 0 188 183 189 0 +0 .071 0 0 1 0 0 0 1 .0109
 16 188 52 0 ?190 191 185 187 0 0 1 31 189 71 0 185 187 192 0 +0 0 0 0 1 0 0 0 1
 .0109 16 185 49 0 ?193 188 182 189 0 0 1 31 192 5 0 194 189 195 0 +0 .071 0 0 1
 0 0 0 1 .0127 16 194 4 0 ?196 197 191 192 0 0 1 31 195 23 0 191 192 198 0 +0 0
 0 0 1 0 0 0 1 .0127 16 191 192 0 ?199 194 188 195 0 0 1 38 255 198 533 0 200 19
5 201 0 +202 203 204 205 205 16 200 567 0 ?206 207 208 198 0 0 1 31 201 809 0 19
7 198 209 0 +0 .042 0 0 1 0 0 0 1 .0127 51 202 68 0 210 211 212 213 -0 .071 0 0
 -1 0 .0109 0 0 -1 51 203 605 0 214 215 216 217 -.02233118799600025 .0355 .015 0
 0 -1 .02229773300491485 -1 0 0 40 255 27 204 0 1 27 .001333161970103004 .396118
267321677 ??334549910854104e-19 .0355 .0108999486587585 .001284045491206256 .028
13748076122295 .01082410398954634 .00399135582757233 .02281775046798225 .0101429
324486415 .00656248604222737 .01973494573902305 .00870309008028596 .008687197346
43093 .0178639455571 .00658350987423607 .0102819612760595 .01673820284168025 .00
361818632986384 .0108901423890446 .01636125990097495 .000463463856556283 .010569
56278293076 .01655658242275815 -.00266352071095471 .00941822297068957 .017321874
9202903 -.00548699153219461 .00766535391421558 .0187041014576763 -.0077493450929
6236 .00557837325433738 .0207849704251065 -.00936438742445513 .00280205745382297
5 .02473886820891655 -.01053368283296374 .000466362278788307 .0311275529146237 -
.0108900186512661 .0001830681560966195 .03807869825992415 -.0108984625544259 .00
22828009835594 .0452596657400683 -.01065827470416578 .00499434160780326 .0495222
200264626 -.00968847521050488 .00743279784268661 .0520899628691 -.00797267309186
536 .00960889821958892 .053812079073756 -.00514578225400045 .01071077458093838 .
0545303675535056 -.00202220371781 .010839555803523 .0546084087959016 .0011463114
6828015 .0100761001756716 .0541279821686221 .004157187180032995 .008583399153701
48 .0530552612941544 .00671827797640412 .00663159040598255 .0513338729523127 .00
865054961764165 .003991787220875055 .0481828733482522 .01014276268002256 .001277
12715427867 .0428427119807027 .01082492245846612 669240231200603e-19 .0367212480
9288605 .0108997945473816 334549910854119e-19 .0355 .0108999486587585 41 3 CI8 t
erm_use0 0 1 cCZ1 205 H?334549910854119e-19 .0355 .0108999486587585 14 255 214 5
82 218 ?219 145 220 4 203 +0 0 219 145 18 51 215 690 0 219 221 203 0 +.0087 .012
5 -.0087 0 0 -1 .00165 -1 0 0 50 255 216 493 0 145 203 222 0 +0 .008 0 0 -1 0 0
 0 -1 141 255 217 198 217 217 203 14 145 481 223 ?214 224 143 4 216 +0 0 214 224
 18 50 222 391 0 224 216 225 0 +0 .008 0 0 -1 0 0 0 -1 14 224 379 226 ?145 227 2
28 4 222 +0 0 145 227 18 50 225 258 0 134 222 229 0 +0 .063 -.0127 0 0 1 1 0 0 1
4 134 420 230 ?231 232 233 4 225 -0 0 231 232 18 50 229 254 0 227 225 234 0 +0 .
063 0 0 -1 0 0 0 -1 14 227 246 235 ?224 236 237 4 229 -0 0 224 236 18 50 234 170
 0 236 229 238 0 +0 .063 0 0 -1 0 0 0 -1 14 236 158 239 ?227 240 241 4 234 -0 0
 227 240 18 50 238 167 0 231 234 211 0 +0 .063 .0127 0 0 -1 -1 0 0 14 231 311 24
2 ?240 134 243 4 238 -0 0 240 134 18 50 211 166 0 244 238 202 0 +.0127 .063 0 -1
 0 0 0 0 1 14 244 563 245 ?151 12 246 4 211 -151 151 151 12 18 81 255 1 245 1726
 247 244 248 0 242 249 250 14 151 558 249 ?210 244 31 4 211 -244 244 210 244 18
 14 12 821 251 ?244 0 252 4 253 -0 0 244 0 18 15 246 562 0 28 244 0 13 18 8 0 0
 0 0 0 0 8 12 17 28 0 246 19 254 10 24 186 0 255 +17 19 0 246 256 28 30 255 9 0
 162 +17 254 0 246 28 257 115 175 171 0 0 -17 24 0 23 258 21 115 28 186 0 254 -1
7 255 0 259 26 260 10 19 9 0 0 -15 259 1542 0 260 14 0 17 26 0 259 261 255 45 21
 27 0 262 -17 260 0 259 255 261 30 49 263 0 0 -17 261 0 259 260 26 47 262 264 0
 0 -17 49 0 129 133 162 47 260 263 0 265 +16 263 1471 0 ?49 138 266 267 0 0 1 16
 138 1476 0 ?41 35 263 268 0 0 1 16 266 1460 0 ?269 263 264 270 0 0 1 31 267 147
3 0 263 270 268 0 -.01032 .0570574086844083 -.0127 0 0 1 1 0 0 .00238 30 270 146
2 0 266 271 267 0 +.01147839763015456 .01602165719488755 .015 0 0 -1 31 268 1478
 0 138 267 272 0 -.01032 .01394259131559172 -.0127 0 0 1 1 0 0 .00238 30 272 148
6 0 35 268 273 0 +.0127 .01394259131559172 .0127 0 0 1 16 35 1484 0 ?29 27 138 2
72 0 0 1 31 273 1495 0 27 272 16 0 -.01032 .0570574086844083 .0127 0 0 -1 -1 0 0
 .00238 16 27 1493 0 ?21 20 35 273 0 0 1 31 16 1500 0 20 273 6 0 -.01032 .013942
59131559172 .0127 0 0 -1 -1 0 0 .00238 16 20 1498 0 ?44 9 27 16 0 0 1 17 44 0 23
 25 36 42 274 20 0 275 +15 23 543 0 36 231 0 17 25 0 23 21 44 45 275 207 0 0 -17
 36 0 23 44 276 22 32 181 0 274 -17 274 0 277 34 278 22 44 20 0 0 -17 275 0 279
 269 262 42 25 207 0 278 +15 279 586 0 275 214 0 17 269 0 279 265 275 50 278 266
 0 133 +17 262 0 279 275 265 45 261 264 0 25 +16 207 1450 0 ?275 280 200 281 0 0
 1 17 278 0 277 274 52 42 269 266 0 0 -15 277 1521 0 274 282 0 17 52 0 277 278 3
4 50 41 138 0 269 -17 34 0 277 52 274 37 29 35 0 0 -14 282 1520 283 ?14 284 277
 4 15 +0 0 14 284 18 81 1 283 1729 247 282 285 0 251 286 287 14 14 1541 286 ?0 2
82 259 4 5 +0 0 0 282 18 14 284 1404 288 ?282 289 290 4 291 +0 0 282 289 18 51 1
5 1532 0 282 291 5 0 +.01032 .01394259131559172 .015 0 0 -1 .00238 -1 0 0 51 291
 1416 0 284 292 15 293 +0 .03962 -.00412 -1 0 0 .00238 0 0 1 51 292 1395 0 289 2
94 291 295 +-.0144365 .03138 -.00412 1 0 0 .00238 0 0 -1 141 293 296 293 293 291
 38 296 1313 0 297 298 271 0 +253 291 299 300 301 16 297 1304 0 ?100 264 302 296
 0 0 1 38 298 1312 0 302 303 296 0 +253 292 304 305 306 30 271 1457 0 264 296 27
0 0 -.01147839763015456 .0549783428051125 .015 0 0 -1 51 253 28 0 12 307 308 309
 -0 .071 0 0 -1 0 .0127 0 0 -1 40 6 299 0 1 6 .0001384222749769874 .349178543123
749 ??-.01091054535758868 .03962 -.0065 -.01097517301777632 .0403343281404271 -.
00639027207792238 -.01114851943515864 .040966030186351 -.00608280481389056 -.011
40698635755356 .04149718629144065 -.00558306924895142 -.0117295686414441 .041879
06839274535 -.00486900600591652 -.01201314280278062 .042 -.00412 41 1 300 L?-.01
091054535758868 .03962 -.0065 41 1 301 L?-.01201314280278062 .042 -.00412 50 307
 22 0 232 212 253 0 +0 0 0 0 1 0 0 0 1 51 308 1353 0 310 253 294 311 +0 .03962 .
00412 1 0 0 .00238 0 0 -1 141 309 312 313 314 253 38 312 1310 0 315 316 303 0 +2
53 308 317 318 319 141 313 296 320 309 253 141 314 303 309 320 253 38 303 1311 0
 321 312 298 0 +253 294 322 323 324 141 320 298 314 313 253 16 321 1292 0 ?61 30
2 315 303 0 0 1 51 294 1374 0 325 308 292 326 +-.0144365 .03138 .00412 -1 0 0 .0
0238 0 0 1 40 6 322 0 1 6 .000138422274976987 .349178543123747 ??-.0109105453575
8868 .03138 .0065 -.01097517301777632 .0306656718595729 .00639027207792238 -.011
14851943515864 .03003396981364905 .00608280481389056 -.01140698635755356 .029502
81370855935 .00558306924895143 -.0117295686414441 .02912093160725465 .0048690060
0591652 -.01201314280278062 .029 .00412 41 1 323 L?-.01091054535758868 .03138 .0
065 41 1 324 L?-.01201314280278062 .029 .00412 14 325 1362 327 ?289 310 328 4 29
4 +0 0 289 310 18 141 326 303 326 326 294 81 1 327 1732 247 325 329 0 288 330 33
1 14 289 1383 330 ?284 325 332 4 292 +0 0 284 325 18 14 310 1341 333 ?325 334 33
5 4 308 +0 0 325 334 18 15 328 1363 0 336 325 0 17 336 0 328 337 338 71 82 339 0
 0 -17 337 0 328 85 336 59 73 340 0 0 -17 338 0 328 336 85 80 341 342 0 0 -17 82
 0 343 344 345 80 336 339 0 346 +16 339 1240 0 ?82 347 348 349 0 0 1 16 347 1245
 0 ?94 350 339 351 0 0 1 16 348 1235 0 ?76 339 352 353 0 0 1 31 349 1242 0 339 3
53 351 0 +-.0161865 .03138 .00412 -1 0 2668805347656625e-31 2668805347656625e-31
 0 1 .00238 31 353 1237 0 348 354 349 0 +-.0161865 .03138 -.00412 -1 0 266880534
7656625e-31 2668805347656625e-31 0 1 .00238 31 351 1247 0 347 349 355 0 +-.01618
65 .03962 .00412 -1 0 2668805347656625e-31 2668805347656625e-31 0 1 .00238 30 35
5 1258 0 350 351 356 0 --.01091054535758868 .029 -.00412 -1 0 0 16 350 1256 0 ?6
4 340 347 355 0 0 1 30 356 1264 0 340 355 357 0 --.0161865 .029 .00412 1 0 0 16
 340 1262 0 ?73 358 350 356 0 0 1 30 357 1276 0 358 356 316 0 --.0144365 .03962
 -.0065 -1 0 0 16 358 1274 0 ?55 359 340 357 0 0 1 30 316 1282 0 359 357 312 0 +
-.0161865 .03138 -.0065 -1 0 0 16 359 1280 0 ?360 315 358 316 0 0 1 17 360 0 361
 362 363 65 364 359 0 365 +16 315 1286 0 ?88 321 359 312 0 0 1 17 88 0 366 367 3
68 86 97 315 0 369 +15 366 819 0 370 12 0 17 367 0 366 61 88 83 369 371 0 0 +17
 368 0 366 88 100 95 372 197 0 0 +17 97 0 335 373 374 95 88 315 0 375 -17 369 0
 376 79 341 86 367 371 0 374 -15 376 885 0 369 377 0 17 79 0 376 346 369 77 374
 378 0 344 +17 341 0 376 369 346 83 338 342 0 367 +16 371 1195 0 ?367 379 380 38
1 0 0 1 17 374 0 335 97 382 86 79 378 0 0 -15 335 1342 0 382 310 0 17 382 0 335
 374 373 77 94 347 0 0 -16 378 1212 0 ?79 352 342 383 0 0 1 16 352 1230 0 ?70 34
8 378 354 0 0 1 16 342 1206 0 ?341 378 384 385 0 0 1 30 383 1214 0 378 385 354 0
 --.0144365 .03962 .0065 1 0 0 30 385 1208 0 342 386 383 0 +-.01091054535758868
 .03138 .0065 1 0 0 31 354 1232 0 352 383 353 0 +-.0161865 .03962 -.00412 -1 0 2
668805347656625e-31 2668805347656625e-31 0 1 .00238 30 386 1190 0 384 387 385 0
 +0 .042 .00412 1 0 0 16 384 1188 0 ?375 342 388 386 0 0 1 30 387 1184 0 388 389
 386 0 +0 .042 -.00412 -1 0 0 16 388 1182 0 ?390 384 379 387 0 0 1 31 389 820 0
 379 381 387 0 +0 .029 0 0 1 0 0 0 1 .0127 16 379 1251 0 ?391 388 371 389 0 0 1
 30 381 817 0 371 209 389 0 +-.01091054535758868 .071 .0065 0 -1 0 30 209 813 0
 380 201 381 0 --.01091054535758868 .071 -.0065 0 -1 0 16 380 1269 0 ?392 371 19
7 209 0 0 1 17 392 0 366 100 58 53 363 380 0 393 +16 197 1171 0 ?368 380 194 201
 0 0 1 17 100 0 366 368 392 98 393 297 0 372 +17 58 0 366 392 370 56 394 302 0 3
63 +17 363 0 361 360 55 56 392 380 0 364 -17 393 0 290 395 396 53 100 297 0 0 -1
5 290 1405 0 393 284 0 17 395 0 290 91 393 68 55 358 0 0 -17 396 0 290 393 91 98
 390 388 0 0 -17 91 0 290 396 395 89 70 352 0 390 -17 390 0 397 398 372 89 396 3
88 0 399 +15 397 917 0 398 400 0 17 398 0 397 375 390 92 399 401 0 373 -17 372 0
 397 390 375 98 368 197 0 396 -17 399 0 343 70 94 89 398 401 0 0 +15 343 1074 0
 344 334 402 17 70 0 343 365 399 68 91 352 0 362 +17 94 0 343 399 344 92 382 347
 0 398 +16 401 1177 0 ?399 403 404 405 0 0 1 16 403 1225 0 ?365 406 401 407 0 0
 1 16 404 1201 0 ?344 401 408 409 0 0 1 30 405 1119 0 401 409 407 0 +-.0161865 .
042 .0065 -2668805347656625e-31 0 -1 30 409 1120 0 404 410 405 0 +-.0161865 .029
 .0065 0 1 0 30 407 1118 0 403 405 411 0 +-.0161865 .042 -.0065 0 -1 0 38 411 10
12 0 406 407 412 0 +202 413 414 415 415 16 406 987 0 ?416 417 403 411 0 0 1 31 4
12 785 0 418 411 419 0 +.0087 .0585 .0087 0 0 1 1 0 0 .00165 51 413 1009 0 420 4
21 422 423 +-.0069365 .0355 -1734723475976805e-33 -1 0 2312964634635745e-31 .004
 2312964634635745e-31 0 1 40 20 414 0 1 20 .0002675671799303555 .376553613653359
 ??-.01013952661616902 .0355 .004 -.01021906375898384 .0342274969115255 .0037921
94073333115 -.01041975754083516 .033099719347703 .003199789491546075 -.010666917
43946396 .0321874288444864 .002242068763365515 -.0108551867513628 .0316237802684
8805 .000987380672809312 -.01089476591230038 .0315142849720756 -.000337750967693
211 -.01078725634997146 .0318183020819193 -.001563681693951885 -.010575921363464
64 .03249332198494955 -.00263815983477352 -.01032913273543942 .03352997891728885
 -.00348123784503066 -.01016192170871742 .03482572052225925 -.00394275882928409
 -.0101595257668184 .0361371528911078 -.003948928486735735 -.01030172493322324 .
0373208614993441 -.003561525431638305 -.01053298188339884 .0383519655250385 -.00
2804691185138195 -.0107682908305254 .0391257533576869 -.001689352713089335 -.010
89366257158156 .03948269810850345 -.0003716393097115425 -.01086119499988464 .039
3930138486164 .000918935892476132 -.01069966874007502 .0389165642314083 .0020801
65582991275 -.0104606496207727 .03807200126138615 .003063463646173735 -.01023465
40871036 .0368921725046367 .003749914094660505 -.01013952661616902 .0355 .004 41
 1 415 H?-.01013952661616902 .0355 .004 14 420 996 424 ?334 400 425 4 413 -0 0 3
34 400 18 50 421 1108 0 334 0 413 0 +-.0161865 0 4257589651205745e-33 -1 0 26688
05347656625e-31 2668805347656625e-31 0 1 50 422 925 0 400 413 426 0 +0 .042 0 0
 1 0 0 0 1 141 423 411 423 423 413 14 400 915 427 ?420 428 397 4 422 +0 0 420 42
8 18 50 426 924 0 428 422 429 0 +0 .029 0 0 1 0 0 0 1 14 428 912 430 ?400 431 43
2 4 426 -0 0 400 431 18 50 429 923 0 377 426 433 0 +-.0144365 .029 .0065 0 0 1 1
 0 0 14 377 882 434 ?431 435 376 4 429 +0 0 431 435 18 50 433 921 0 431 429 436
 0 +-.0144365 .029 -.0065 0 0 -1 -1 0 0 14 431 886 437 ?428 377 361 4 433 +0 0 4
28 377 18 50 436 781 0 435 433 438 0 +.0087 .0585 .0087 0 0 1 1 0 0 14 435 748 4
39 ?377 440 441 4 436 +0 0 377 440 18 51 438 779 0 440 436 442 0 +.0087 .0585 .0
087 0 0 1 .00165 1 0 0 14 440 743 443 ?435 444 445 4 438 -0 0 435 444 18 50 442
 778 0 444 438 446 0 +.0087 .0125 .0087 0 0 1 1 0 0 14 444 766 447 ?440 448 449
 4 442 +0 0 440 448 18 51 446 776 0 448 442 450 0 +.0087 .0125 .0087 0 0 1 .0016
5 1 0 0 14 448 761 451 ?444 452 453 4 446 -0 0 444 452 18 50 450 695 0 452 446 4
54 0 +.0087 .0585 -.0087 0 0 -1 -1 0 0 14 452 662 455 ?448 456 457 4 450 +0 0 44
8 456 18 51 454 693 0 456 450 221 0 +.0087 .0585 -.0087 0 0 -1 .00165 -1 0 0 14
 456 657 458 ?452 459 460 4 454 -0 0 452 459 18 50 221 692 0 459 454 215 0 +.008
7 .0125 -.0087 0 0 -1 -1 0 0 14 459 680 461 ?456 219 462 4 221 +0 0 456 219 18 8
1 1 461 1746 247 459 463 0 458 464 465 14 219 675 464 ?459 214 466 4 215 -0 0 45
9 214 18 15 462 682 0 467 459 0 17 467 0 462 467 467 0 468 469 0 0 +17 468 0 466
 468 468 0 467 469 0 0 -16 469 669 0 ?467 470 471 472 0 0 1 16 470 654 0 ?473 20
8 469 474 0 0 1 16 471 672 0 ?475 469 418 476 0 0 1 31 472 697 0 469 474 476 0 +
.0087 .0125 -.0087 0 0 -1 -1 0 0 .00165 31 474 698 0 470 477 472 0 +.0087 .0585
 -.0127 0 0 -1 -1 0 0 .00165 31 476 696 0 471 472 281 0 +.0087 .0125 -.0127 0 0
 -1 -1 0 0 .00165 31 281 611 0 207 476 478 0 -.02233118799600025 .0355 .0127 0 0
 -1 -1 0 0 .02229773300491485 31 478 608 0 280 281 157 0 -.02233118799600025 .03
55 -.0127 0 0 1 1 0 0 .02229773300491485 16 280 1444 0 ?265 148 207 478 0 0 1 31
 157 502 0 148 478 149 0 +0 .008 0 0 -1 0 0 0 -1 .0127 16 148 450 0 ?126 136 280
 157 0 0 1 17 126 0 479 123 137 124 103 148 0 144 +15 479 101 0 108 12 480 17 12
3 0 479 111 126 121 147 154 0 160 +17 137 0 479 126 108 101 135 163 0 0 +17 108
 0 479 137 114 106 168 166 0 173 -17 135 0 129 481 130 106 137 163 0 0 -17 481 0
 129 162 135 118 173 165 0 0 -17 162 0 129 49 481 30 256 140 0 260 +17 173 0 237
 168 120 106 481 165 0 135 +15 237 248 0 173 227 0 17 168 0 237 120 173 112 108
 166 0 257 +17 120 0 237 173 168 118 257 169 0 256 +17 257 0 246 254 256 112 120
 169 0 0 -17 256 0 246 257 19 118 162 140 0 481 -17 114 0 479 108 111 112 180 17
8 0 175 -17 111 0 479 114 123 109 184 182 0 180 -17 180 0 241 117 175 109 114 17
8 0 258 +17 175 0 241 180 117 112 254 171 0 168 +15 241 160 0 175 236 0 17 117 0
 241 175 180 115 258 176 0 24 +17 258 0 23 184 24 109 117 176 0 0 -17 184 0 23 2
76 258 121 111 182 0 0 +17 276 0 23 36 184 104 160 141 0 0 -17 160 0 228 147 152
 121 276 141 0 184 +15 228 381 0 147 224 0 17 147 0 228 152 160 124 123 154 0 15
0 -17 152 0 228 160 147 104 150 153 0 276 +15 480 511 0 199 12 366 17 199 0 480
 199 199 0 482 191 0 0 +17 482 0 483 482 482 0 199 191 0 0 -15 483 429 0 482 232
 0 14 232 431 484 ?134 210 485 4 307 -0 0 134 210 18 81 1 484 1748 247 232 486 0
 464 487 488 14 210 534 487 ?232 151 489 4 202 +0 0 232 151 18 15 485 38 0 193 2
32 483 17 193 0 485 193 193 0 490 185 0 0 +17 490 0 491 490 490 0 193 185 0 0 -1
5 491 59 0 490 210 492 15 492 58 0 190 210 493 17 190 0 492 190 190 0 494 188 0
 0 +15 493 531 0 206 210 0 17 206 0 493 206 206 0 495 200 0 0 +17 495 0 220 495
 495 0 206 200 0 0 -15 220 585 0 495 214 279 17 494 0 496 494 494 0 190 188 0 0
 -15 496 43 0 494 240 0 14 240 46 497 ?236 231 498 4 212 +0 0 236 231 18 81 1 49
7 1750 247 240 499 0 487 500 501 15 498 3 0 196 240 496 50 212 2 0 240 202 307 0
 +0 .071 0 0 1 0 0 0 1 17 196 0 498 196 196 0 502 194 0 0 +17 502 0 252 502 502
 0 196 194 0 0 -15 252 24 0 502 12 479 80 255 1 247 503 504 9000 1 1 1 1 1 1 1 1
 0 FFFFTFTFFFFFFF1 81 1 499 1614 505 240 0 497 506 507 508 81 1 487 1749 247 210
 509 0 484 497 510 81 1 500 1751 247 334 511 0 497 0 512 82 255 1 501 -152154887
5 14 334 1072 500 ?310 420 343 4 421 +0 0 310 420 18 81 1 511 1633 505 334 0 500
 513 514 515 82 1 512 1116078564 80 1 505 0 516 8001 0 0 0 0 3 5 0 0 0 FFFFTFTFF
FFFFF2 81 1 513 1632 505 420 0 424 517 511 518 81 1 514 1634 505 310 0 333 511 3
29 519 83 255 3 515 .898039215686275 .917647058823529 .929411764705882 81 1 333
 1734 247 310 514 0 330 424 520 81 1 329 1635 505 325 0 327 514 521 522 83 3 519
 .898039215686275 .917647058823529 .929411764705882 81 1 521 1636 505 289 0 330
 329 523 524 83 3 522 .898039215686275 .917647058823529 .929411764705882 81 1 33
0 1733 247 289 521 0 327 333 525 81 1 523 1637 505 284 0 288 521 285 526 83 3 52
4 .898039215686275 .917647058823529 .929411764705882 81 1 288 1731 247 284 523 0
 286 327 527 81 1 285 1638 505 282 0 283 523 528 529 83 3 526 .898039215686275 .
917647058823529 .929411764705882 81 1 528 1639 505 14 0 286 285 0 530 83 3 529 .
898039215686275 .917647058823529 .929411764705882 81 1 286 1730 247 14 528 0 283
 288 531 83 3 530 .898039215686275 .917647058823529 .929411764705882 82 1 531 11
52778725 82 1 527 1128595940 82 1 525 1126629860 81 1 424 1735 247 420 513 0 333
 427 532 82 1 520 1122697700 81 1 427 1736 247 400 517 0 424 430 533 82 1 532 10
69613539 81 1 517 1631 505 400 0 427 534 513 535 81 1 430 1737 247 428 534 0 427
 434 536 82 1 533 1050214884 81 1 534 1630 505 428 0 430 537 517 538 81 1 434 17
38 247 377 539 0 430 437 540 82 1 536 1034682852 81 1 539 1628 505 377 0 434 541
 537 542 81 1 437 1739 247 431 537 0 434 439 543 82 1 540 1058144740 81 1 537 16
29 505 431 0 437 539 534 544 81 1 439 1740 247 435 541 0 437 443 545 82 1 543 10
57685988 81 1 541 1627 505 435 0 439 546 539 547 81 1 443 1741 247 440 546 0 439
 447 548 82 1 545 1000669660 81 1 546 1626 505 440 0 443 549 541 550 81 1 447 17
42 247 444 549 0 443 451 551 82 1 548 1002635740 81 1 549 1625 505 444 0 447 552
 546 553 81 1 451 1743 247 448 552 0 447 455 554 82 1 551 1004667356 81 1 552 16
24 505 448 0 451 555 549 556 81 1 455 1744 247 452 555 0 451 458 557 82 1 554 10
06633436 81 1 555 1623 505 452 0 455 558 552 559 81 1 458 1745 247 456 558 0 455
 461 560 82 1 557 -241172019 81 1 558 1622 505 456 0 458 463 555 561 82 1 560 -2
39205939 81 1 463 1621 505 459 0 461 562 558 563 83 3 561 .898039215686275 .9176
47058823529 .929411764705882 81 1 562 1620 505 219 0 464 564 463 565 83 3 563 .8
98039215686275 .917647058823529 .929411764705882 81 1 464 1747 247 219 562 0 461
 484 566 81 1 564 1619 505 214 0 218 567 562 568 83 3 565 .898039215686275 .9176
47058823529 .929411764705882 81 1 218 1719 247 214 564 0 0 223 569 81 1 567 1618
 505 145 0 223 570 564 571 83 3 568 .898039215686275 .917647058823529 .929411764
705882 81 1 223 1720 247 145 567 0 218 226 572 81 1 570 1617 505 224 0 226 573 5
67 574 83 3 571 .898039215686275 .917647058823529 .929411764705882 81 1 226 1721
 247 224 570 0 223 230 575 81 1 573 1616 505 227 0 235 507 570 576 83 3 574 .898
039215686275 .917647058823529 .929411764705882 81 1 235 1723 247 227 573 0 230 2
39 577 81 1 507 1615 505 236 0 239 499 573 578 83 3 576 .898039215686275 .917647
058823529 .929411764705882 81 1 239 1724 247 236 507 0 235 242 579 83 3 578 .898
039215686275 .917647058823529 .929411764705882 81 1 242 1725 247 231 506 0 239 2
45 580 82 1 579 -1440218697 81 1 506 1613 505 231 0 242 581 499 582 82 1 580 -20
51735067 81 1 581 1612 505 134 0 230 486 506 583 83 3 582 .898039215686275 .9176
47058823529 .929411764705882 81 1 230 1722 247 134 581 0 226 235 584 81 1 486 16
11 505 232 0 484 509 581 585 83 3 583 .898039215686275 .917647058823529 .9294117
64705882 81 1 509 1610 505 210 0 487 586 486 587 83 3 585 .898039215686275 .9176
47058823529 .929411764705882 81 1 586 1609 505 151 0 249 248 509 588 83 3 587 .8
98039215686275 .917647058823529 .929411764705882 81 1 249 1727 247 151 586 0 245
 251 589 81 1 248 1608 505 244 0 245 590 586 591 83 3 588 .898039215686275 .9176
47058823529 .929411764705882 81 1 590 1607 505 12 0 251 0 248 592 83 3 591 .8980
39215686275 .917647058823529 .929411764705882 81 1 251 1728 247 12 590 0 249 283
 593 83 3 592 .898039215686275 .917647058823529 .929411764705882 82 1 593 105454
0260 82 1 589 -2051472923 82 1 584 -2052128283 82 1 577 -1429601865 82 1 575 -13
00889159 82 1 572 -1290141255 82 1 569 -2052587035 82 1 566 -235208243 83 3 559
 .898039215686275 .917647058823529 .929411764705882 83 3 556 .898039215686275 .9
17647058823529 .929411764705882 83 3 553 .898039215686275 .917647058823529 .9294
11764705882 83 3 550 .898039215686275 .917647058823529 .929411764705882 83 3 547
 .898039215686275 .917647058823529 .929411764705882 83 3 544 .898039215686275 .9
17647058823529 .929411764705882 83 3 542 .898039215686275 .917647058823529 .9294
11764705882 83 3 538 .898039215686275 .917647058823529 .929411764705882 83 3 535
 .898039215686275 .917647058823529 .929411764705882 83 3 518 .898039215686275 .9
17647058823529 .929411764705882 79 255 15 516 SDL/TYSA_COLOUR82 1 510 -203757929
5 83 3 508 .898039215686275 .917647058823529 .929411764705882 79 14 504 SWEntUnc
hanged15 489 980 0 594 210 491 17 594 0 489 594 594 0 416 406 0 0 -17 416 0 425
 416 416 0 594 406 0 0 +15 425 999 0 416 420 595 15 595 1099 0 596 420 0 17 596
 0 595 596 596 0 597 598 0 0 +17 597 0 402 597 597 0 596 598 0 0 -16 598 1061 0
 ?596 408 0 599 0 0 1 16 408 1219 0 ?345 404 598 410 0 0 1 31 599 1123 0 598 0 4
10 0 +-.0161865 .0355 404768811061255e-33 -1 0 2312964634635745e-31 231296463463
5745e-31 0 1 .004 30 410 1121 0 408 599 409 0 +-.0161865 .029 -.0065 26688053476
56625e-31 0 1 17 345 0 343 82 76 71 600 408 0 336 +17 76 0 343 345 365 74 67 348
 0 600 +17 600 0 432 64 73 74 345 408 0 601 -15 432 914 0 391 428 0 17 64 0 432
 391 600 62 601 350 0 370 +17 73 0 432 600 391 71 337 340 0 345 +17 601 0 332 67
 394 74 64 350 0 0 -15 332 1384 0 394 289 0 17 67 0 332 364 601 65 76 348 0 360
 -17 394 0 332 601 364 62 58 302 0 0 -17 364 0 332 394 67 56 360 359 0 0 -16 302
 1298 0 ?58 297 321 298 0 0 1 17 391 0 432 73 64 59 370 379 0 337 +17 370 0 366
 58 61 62 391 379 0 394 -17 61 0 366 370 367 59 85 321 0 391 +17 85 0 328 338 33
7 83 61 321 0 341 -17 365 0 343 76 70 65 362 403 0 0 +17 362 0 361 55 360 68 365
 403 0 395 -15 361 889 0 363 431 0 17 55 0 361 363 362 53 395 358 0 392 +15 402
 1075 0 597 334 0 82 1 488 -1274936903 17 265 0 279 262 269 47 133 280 0 261 +17
 133 0 129 41 49 50 265 280 0 0 -31 477 699 0 208 602 474 0 +.0087 .0585 -.0087
 0 0 -1 -1 0 0 .00165 16 208 651 0 ?603 200 470 477 0 0 1 31 602 782 0 417 604 4
77 0 +.0087 .0125 .0127 0 0 1 1 0 0 .00165 16 417 758 0 ?605 606 406 602 0 0 1 3
1 604 783 0 606 419 602 0 +.0087 .0125 .0087 0 0 1 1 0 0 .00165 16 606 755 0 ?60
7 608 417 604 0 0 1 31 419 784 0 608 412 604 0 +.0087 .0585 .0127 0 0 1 1 0 0 .0
0165 16 608 740 0 ?609 418 606 419 0 0 1 17 609 0 610 609 609 0 611 608 0 0 +16
 418 737 0 ?612 471 608 412 0 0 1 17 612 0 441 612 612 0 613 418 0 0 +15 441 750
 0 612 435 0 17 613 0 445 613 613 0 612 418 0 0 -15 445 746 0 613 440 610 15 610
 747 0 609 440 0 17 611 0 243 611 611 0 609 608 0 0 -15 243 731 0 611 231 614 15
 614 725 0 615 231 23 17 615 0 614 615 615 0 605 417 0 0 -17 605 0 616 605 605 0
 615 417 0 0 +15 616 765 0 605 448 0 17 607 0 449 607 607 0 617 606 0 0 +15 449
 768 0 607 444 0 17 617 0 453 617 617 0 607 606 0 0 -15 453 764 0 617 448 616 17
 603 0 457 603 603 0 618 208 0 0 +15 457 664 0 603 452 0 17 618 0 460 618 618 0
 603 208 0 0 -15 460 660 0 618 456 619 15 619 661 0 473 456 0 17 473 0 619 473 4
73 0 620 470 0 0 +17 620 0 233 620 620 0 473 470 0 0 -15 233 645 0 620 134 621 1
5 621 639 0 622 134 129 17 622 0 621 622 622 0 475 471 0 0 -17 475 0 623 475 475
 0 622 471 0 0 +15 623 679 0 475 219 0 15 466 678 0 468 219 623 82 1 465 -237174
323 17 344 0 343 94 82 77 346 404 0 382 +17 346 0 376 341 79 80 344 404 0 338 -1
7 375 0 397 372 398 95 373 384 0 368 +17 373 0 335 382 97 92 375 384 0 0 -82 1 3
31 1124663780 40 6 317 0 1 6 .000172355926618259 .3922733799585195 ??-.012013142
80278062 .042 .00412 -.01169307589369194 .0418483395675386 .00495600405007505 -.
0113587845665731 .04141701368319445 .00568049409560302 -.01106979494259704 .0407
307241332736 .00622492087731668 -.01092269528651246 .0399312325880475 .006479562
30605111 -.0109105453575887 .03962 .0065 41 1 318 L?-.01201314280278062 .042 .00
412 41 1 319 L?-.0109105453575887 .03962 .0065 141 311 312 311 311 308 16 264 14
55 0 ?262 266 297 271 0 0 1 40 6 304 0 1 6 .0001723559266182555 .392273379958517
5 ??-.01201314280278062 .029 -.00412 -.01169307589369194 .0291516604324614 -.004
95600405007505 -.0113587845665731 .02958298631680555 -.00568049409560302 -.01106
979494259704 .0302692758667264 -.00622492087731668 -.01092269528651246 .03106876
741195245 -.00647956230605111 -.01091054535758868 .03138 -.0065 41 1 305 L?-.012
01314280278062 .029 -.00412 41 1 306 L?-.01091054535758868 .03138 -.0065 141 295
 298 295 295 292 82 1 287 1150812645 17 32 0 31 150 29 104 36 181 0 152 +16 181
 1482 0 ?32 186 178 183 186 186 1 82 1 250 -2051603995 141 213 198 624 624 202 1
41 624 411 213 213 202 19 13 30 0 1 0 8 4 S0 74 4 CI16 index_map_offset0 0 1 dCC
Z20 11 2 0 0 500 528 0 0 0 0 0 0 0 0 0 0 0 0 0 0 0 0 0 0 1 0 
