**ABCDEFGHIJKLMNOPQRSTUVWXYZabcdefghijklmnopqrstuvwxyz**************************
**PARASOLID !"#$%&'()*+,-./:;<=>?@[\]^_`{|}~0123456789**************************
**PART1;
MC=AMD64;
MC_MODEL=AMD64 Family 23 Model 17 Stepping 0, AuthenticAMD;
MC_ID=unknown;
OS=Windows_NT;
OS_RELEASE=unknown;
FRU=Parasolid Version 30.0, build 298, 12-15-2017;
APPL=SOLIDWORKS 2018-2018134;
SITE=;
USER=unknown;
FORMAT=text;
GUISE=transmit;
KEY=A-Arm Jig;
FILE=A-Arm Jig.x_t;
DATE=Sun Dec 16 14:05:00 2018;
**PART2;
SCH=SCH_3000298_30000;
USFLD_SIZE=0;
**PART3;
**END_OF_HEADER*****************************************************************
T51 : TRANSMIT FILE created by modeller version 300029823 SCH_3000298_30000_1300
6205 0 12 33 CCCCCCI4 mesh1006 0 I8 polyline1008 0 CCCCCCCDI5 owner1040 0 CCCCCC
I13 boundary_mesh1006 0 I17 boundary_polyline1008 0 CCCA16 index_map_offset0 0 1
 dA9 index_map82 0 A17 node_id_index_map82 0 A20 schema_embedding_map82 0 A5 chi
ld12 0 A14 lowest_node_id0 0 1 dZ1 757 0 2 0 0 0 0 0 0 1e3 1e-8 0 3 0 1 0 1 1 4
 5 6 7 0 0 8 9 10 0 0 0 0 0 0 70 11 CI9 list_type0 0 1 uI10 notransmit0 0 1 lCCC
DCCDI12 finger_index0 0 1 dI12 finger_block1012 0 CZ2 0 4 T1 0 0 2 20 1 11 11 13
 255 4 134 0 1 0 12 0 0 13 0 50 255 5 126 0 12 14 0 0 +-.1875 .11303 -.17 0 0 1
 1 0 0 30 255 6 133 0 9 15 0 0 +.1875 .11303 -.17 0 -1 0 29 255 7 99 0 16 17 0 .
1875 0 .1356424245330202 19 8 CCCCCCCA5 owner12 0 Z8 40 0 1 13 0 18 V0 16 255 9
 109 0 ?19 0 20 6 0 0 1 18 255 10 34 0 21 0 22 23 ?1 17 255 21 0 24 25 26 10 27
 28 0 29 -18 22 31 0 30 10 31 32 ?1 29 23 36 0 10 32 33 .1875 .11303 .1356424245
330202 29 32 33 0 22 34 23 -.1875 .11303 .1356424245330204 29 33 103 0 35 23 36
 .1875 0 -.17 18 35 90 0 37 38 0 33 ?1 29 36 102 0 38 33 17 -.1875 0 -.17 18 38
 89 0 39 40 35 36 ?1 29 17 100 0 40 36 7 -.1875 0 .1356424245330204 18 40 87 0 4
1 16 38 17 ?1 17 41 0 42 43 44 40 39 45 0 46 +18 16 86 0 47 48 40 7 ?1 17 47 0 4
9 50 46 16 51 52 0 25 +18 48 22 0 53 31 16 54 ?1 17 53 0 55 19 56 48 57 58 0 27
 -18 31 25 0 57 22 48 34 ?1 29 54 24 0 48 0 34 .1875 .11303 -.17 29 34 27 0 31 5
4 32 -.1875 .11303 -.17 17 57 0 59 30 27 31 53 58 0 56 +15 255 59 3 0 27 60 0 17
 30 0 59 29 57 22 61 62 0 43 +17 27 0 59 57 29 48 21 28 0 26 +16 58 7 0 ?57 62 2
8 63 0 0 1 17 56 0 55 53 64 31 44 20 0 61 -15 55 118 0 64 12 0 17 64 0 55 56 19
 38 65 66 0 44 +17 44 0 42 41 61 38 56 20 0 0 +16 20 108 0 ?44 9 67 15 0 0 1 17
 61 0 42 44 43 31 30 62 0 0 -15 42 114 0 41 68 0 17 43 0 42 61 41 22 46 67 0 69
 -16 62 10 0 ?30 70 58 71 0 0 1 16 70 16 0 ?29 72 62 73 0 0 1 30 71 11 0 62 63 7
3 0 +-.1875 .11303 -.15 0 0 1 30 63 8 0 58 74 71 0 +-.1875 .11303 -.17 -1 0 0 30
 73 17 0 70 71 75 0 +-.1875 .11303 .1356424245330204 1 0 -740148683083438e-31 30
 75 96 0 66 73 76 0 +-.1875 0 -.17 -1 0 0 16 66 77 0 ?64 45 77 75 0 0 1 30 76 94
 0 45 75 78 0 +-.1875 0 -.15 0 0 1 16 45 69 0 ?41 52 66 76 0 0 1 30 78 93 0 52 7
6 79 0 +-.1875 0 .1356424245330204 1 0 -740148683083438e-31 16 52 65 0 ?47 80 45
 78 0 0 1 30 79 92 0 80 78 81 0 +.1875 0 -.152769842225601 -1924715333890995e-31
 0 -1 16 80 61 0 ?37 28 52 79 0 0 1 30 81 129 0 72 79 82 0 +.1875 .11303 .135642
4245330202 0 -1 0 16 72 105 0 ?25 67 70 81 0 0 1 30 82 130 0 67 81 15 0 +-.1875
 .11303 .1356424245330204 0 -1 0 16 67 106 0 ?46 20 72 82 0 0 1 30 15 132 0 20 8
2 6 0 +-.1875 .11303 -.17 0 -1 0 17 46 0 49 47 69 40 43 67 0 51 +15 49 112 0 47
 83 0 17 69 0 49 46 50 22 29 70 0 0 -17 51 0 84 39 85 40 47 52 0 0 -15 84 60 0 6
5 86 0 17 39 0 84 65 51 38 41 45 0 64 -17 85 0 84 51 65 16 37 80 0 0 -17 65 0 84
 85 39 35 64 66 0 19 -17 37 0 24 26 25 35 85 80 0 65 +15 24 110 0 37 87 0 17 26
 0 24 21 37 48 19 9 0 0 -17 25 0 24 37 21 16 50 72 0 85 +17 50 0 49 69 47 10 25
 72 0 0 -17 19 0 55 64 53 35 26 9 0 0 +14 255 87 111 88 ?60 83 24 4 89 -0 0 60 8
3 18 81 255 1 88 730 90 87 91 0 0 92 93 14 60 1 92 ?86 87 94 4 95 +0 0 86 87 18
 14 83 113 96 ?87 68 49 4 97 -0 0 87 68 18 50 89 122 0 87 98 97 0 +.1875 .11303
 -.152769842225601 -1 0 1924715333890995e-31 1924715333890995e-31 0 1 13 18 41 0
 0 0 0 0 0 8 12 14 12 119 99 ?68 0 55 4 5 -0 0 68 0 18 81 1 99 733 90 12 100 0 9
6 101 102 14 68 115 101 ?83 12 42 4 14 -0 0 83 12 18 81 1 101 734 90 68 103 0 99
 104 105 50 14 124 0 68 97 5 0 +-.1875 .11303 -.15 1 0 0 0 0 -1 50 97 123 0 83 8
9 14 0 +-.1875 .11303 .1356424245330204 -740148683083438e-31 0 -1 -1 0 740148683
083438e-31 80 255 1 90 106 107 9000 1 1 1 1 1 1 1 1 0 FFFFTFTFFFFFFF1 81 1 103 6
43 108 68 0 101 100 109 110 81 1 104 735 90 86 111 0 101 112 113 82 255 1 105 80
937139 14 86 59 104 ?114 60 84 4 98 -0 0 114 60 18 81 1 111 647 108 86 0 104 115
 116 117 81 1 112 736 90 114 116 0 104 118 119 82 1 113 79102131 14 114 445 112
 ?120 86 121 4 122 -0 0 120 86 18 81 1 116 648 108 114 0 112 111 123 124 81 1 11
8 737 90 120 123 0 112 125 126 82 1 119 -462290762 14 120 450 118 ?127 114 128 4
 129 +0 0 127 114 18 81 1 123 649 108 120 0 118 116 130 131 81 1 125 738 90 127
 130 0 118 132 133 82 1 126 -464256842 14 127 427 125 ?134 120 135 4 136 -0 0 13
4 120 18 81 1 130 650 108 127 0 125 123 137 138 81 1 132 739 90 134 137 0 125 13
9 140 82 1 133 -458358602 14 134 432 132 ?141 127 142 4 143 +0 0 141 127 18 81 1
 137 651 108 134 0 132 130 144 145 81 1 139 740 90 141 144 0 132 146 147 82 1 14
0 -460324682 14 141 409 139 ?148 134 149 4 150 -0 0 148 134 18 81 1 144 652 108
 141 0 139 137 151 152 81 1 146 741 90 148 151 0 139 153 154 82 1 147 -454426442
 14 148 414 146 ?155 141 156 4 157 +0 0 155 141 18 81 1 151 653 108 148 0 146 14
4 158 159 81 1 153 742 90 155 158 0 146 160 161 82 1 154 -456392522 14 155 391 1
53 ?162 148 163 4 164 -0 0 162 148 18 81 1 158 654 108 155 0 153 151 165 166 81
 1 160 743 90 162 165 0 153 167 168 82 1 161 -450494282 14 162 396 160 ?169 155
 170 4 171 +0 0 169 155 18 81 1 165 655 108 162 0 160 158 172 173 81 1 167 744 9
0 169 172 0 160 174 175 82 1 168 -452460362 14 169 373 167 ?176 162 177 4 178 -0
 0 176 162 18 81 1 172 656 108 169 0 167 165 179 180 81 1 174 745 90 176 179 0 1
67 181 182 82 1 175 -446562122 14 176 378 174 ?183 169 184 4 185 +0 0 183 169 18
 81 1 179 657 108 176 0 174 172 186 187 81 1 181 746 90 183 186 0 174 188 189 82
 1 182 -448528202 14 183 355 181 ?190 176 191 4 192 -0 0 190 176 18 81 1 186 658
 108 183 0 181 179 193 194 81 1 188 747 90 190 193 0 181 195 196 82 1 189 -44262
9962 14 190 360 188 ?197 183 198 4 199 +0 0 197 183 18 81 1 193 659 108 190 0 18
8 186 200 201 81 1 195 748 90 197 200 0 188 202 203 82 1 196 -444596042 14 197 3
37 195 ?204 190 205 4 206 -0 0 204 190 18 81 1 200 660 108 197 0 195 193 207 208
 81 1 202 749 90 204 207 0 195 209 210 82 1 203 -438697802 14 204 342 202 ?211 1
97 212 4 213 +0 0 211 197 18 81 1 207 661 108 204 0 202 200 214 215 81 1 209 750
 90 211 214 0 202 216 217 82 1 210 -440663882 14 211 319 209 ?218 204 219 4 220
 -0 0 218 204 18 81 1 214 662 108 211 0 209 207 221 222 81 1 216 751 90 218 221
 0 209 223 224 82 1 217 -434765642 14 218 324 216 ?225 211 226 4 227 +0 0 225 21
1 18 81 1 221 663 108 218 0 216 214 228 229 81 1 223 752 90 225 228 0 216 230 23
1 82 1 224 -436731722 14 225 301 223 ?232 218 233 4 234 -0 0 232 218 18 81 1 228
 664 108 225 0 223 221 235 236 81 1 230 753 90 232 235 0 223 237 238 82 1 231 -4
30833482 14 232 306 230 ?239 225 240 4 241 +0 0 239 225 18 81 1 235 665 108 232
 0 230 228 242 243 81 1 237 754 90 239 242 0 230 244 245 82 1 238 -432799562 14
 239 283 237 ?246 232 247 4 248 -0 0 246 232 18 81 1 242 666 108 239 0 237 235 2
49 250 81 1 244 755 90 246 249 0 237 251 252 82 1 245 -426901322 14 246 288 244
 ?253 239 254 4 255 +0 0 253 239 18 81 1 249 667 108 246 0 244 242 256 257 81 1
 251 756 90 253 256 0 244 258 259 82 1 252 -428867402 14 253 263 251 ?260 246 26
1 4 262 -0 0 260 246 18 81 1 256 668 108 253 0 251 249 263 264 81 1 258 757 90 2
60 263 0 251 0 265 82 1 259 -466288458 14 260 268 258 ?0 253 266 4 267 +0 0 0 25
3 18 81 1 263 669 108 260 0 258 256 0 268 82 1 265 -471269194 80 1 108 0 269 800
1 0 0 0 0 3 5 0 0 0 FFFFTFTFFFFFFF2 83 255 3 268 .898039215686275 .9176470588235
29 .929411764705882 79 255 15 269 SDL/TYSA_COLOUR15 266 271 0 270 260 0 50 267 5
10 0 260 0 262 0 +0 .09303 0 0 1 0 0 0 1 51 255 262 508 0 253 267 234 0 +-.16360
91154232915 .09303 -.14569581866178 0 1 0 .003 0 0 1 51 234 507 0 225 262 241 0
 +.1540092478454405 .09303 -.0842079476278883 0 1 0 .003 0 0 1 50 241 505 0 232
 234 248 0 +.1540092478454405 .09303 -.0842079476278883 0 1 0 0 0 1 51 248 504 0
 239 241 255 0 +.138154047488741 .09303 -.1108203738334736 0 1 0 .003 0 0 1 50 2
55 502 0 246 248 122 0 +.138154047488741 .09303 -.1108203738334736 0 1 0 0 0 1 5
1 122 501 0 114 255 129 0 +-.132455839764983 .09303 -.1324675713649472 0 1 0 .00
3 0 0 1 50 129 499 0 120 122 136 0 +-.132455839764983 .09303 -.1324675713649472
 0 1 0 0 0 1 51 136 498 0 127 129 143 0 +-.177548814269973 .09303 -.002914785745
00423 0 1 0 .003 0 0 1 50 143 496 0 134 136 150 0 +-.177548814269973 .09303 -.00
291478574500423 0 1 0 0 0 1 51 150 495 0 141 143 157 0 +-.1601588842701995 .0930
3 .0900363963788493 0 1 0 .003 0 0 1 50 157 493 0 148 150 164 0 +-.1601588842701
995 .09303 .0900363963788493 0 1 0 0 0 1 51 164 492 0 155 157 171 0 +-.159322465
717758 .09303 .117822298668571 0 1 0 .003 0 0 1 50 171 490 0 162 164 178 0 +-.15
9322465717758 .09303 .117822298668571 0 1 0 0 0 1 51 178 489 0 169 171 185 0 +-.
0454503723314891 .09303 .1152516725490412 0 1 0 .003 0 0 1 50 185 487 0 176 178
 192 0 +-.0454503723314891 .09303 .1152516725490412 0 1 0 0 0 1 51 192 486 0 183
 185 199 0 +.143753799676271 .09303 .1140298019233484 0 1 0 .003 0 0 1 50 199 48
4 0 190 192 206 0 +.143753799676271 .09303 .1140298019233484 0 1 0 0 0 1 51 206
 483 0 197 199 213 0 +.1265470157298004 .09303 .0900363963788493 0 1 0 .003 0 0
 1 50 213 481 0 204 206 220 0 +.1265470157298004 .09303 .0900363963788493 0 1 0
 0 0 1 51 220 480 0 211 213 227 0 +.1636037392526585 .09303 -.000788099456570386
 0 1 0 .003 0 0 1 50 227 478 0 218 220 95 0 +.1636037392526585 .09303 -.00078809
9456570386 0 1 0 0 0 1 50 95 2 0 60 227 98 0 +0 .11303 0 0 1 0 0 0 1 50 98 91 0
 86 95 89 0 +0 0 0 0 1 0 0 0 1 17 270 0 266 270 270 0 271 77 0 0 +17 271 0 261 2
71 271 0 270 77 0 0 -16 77 257 0 ?270 66 272 273 0 0 1 16 272 260 0 ?274 77 275
 276 0 0 1 31 255 273 532 0 77 0 276 0 +-.1636091154232915 .09303 -.145695818661
78 0 1 0 0 0 1 .003 31 276 531 0 272 273 277 0 +-.1636091154232915 .11303 -.1456
9581866178 0 1 0 0 0 1 .003 31 277 530 0 278 276 279 0 +.1540092478454405 .11303
 -.0842079476278883 0 1 0 0 0 1 .003 16 278 298 0 ?280 281 282 277 0 0 1 31 279
 529 0 282 277 283 0 +.1540092478454405 .09303 -.0842079476278883 0 1 0 0 0 1 .0
03 16 282 295 0 ?284 278 285 279 0 0 1 31 283 528 0 285 279 286 0 +.138154047488
741 .11303 -.1108203738334736 0 1 0 0 0 1 .003 16 285 280 0 ?287 282 288 283 0 0
 1 31 286 527 0 288 283 289 0 +.138154047488741 .09303 -.1108203738334736 0 1 0
 0 0 1 .003 16 288 277 0 ?290 285 0 286 0 0 1 31 289 526 0 275 286 291 0 +-.1324
55839764983 .11303 -.1324675713649472 0 1 0 0 0 1 .003 16 275 442 0 ?292 272 293
 289 0 0 1 31 291 525 0 293 289 294 0 +-.132455839764983 .09303 -.13246757136494
72 0 1 0 0 0 1 .003 16 293 439 0 ?295 275 296 291 0 0 1 31 294 524 0 296 291 297
 0 +-.177548814269973 .11303 -.00291478574500423 0 1 0 0 0 1 .003 16 296 424 0 ?
298 293 299 294 0 0 1 31 297 523 0 299 294 300 0 +-.177548814269973 .09303 -.002
91478574500423 0 1 0 0 0 1 .003 16 299 421 0 ?301 296 302 297 0 0 1 31 300 522 0
 302 297 303 0 +-.1601588842701995 .11303 .0900363963788493 0 1 0 0 0 1 .003 16
 302 406 0 ?304 299 305 300 0 0 1 31 303 521 0 305 300 306 0 +-.1601588842701995
 .09303 .0900363963788493 0 1 0 0 0 1 .003 16 305 403 0 ?307 302 308 303 0 0 1 3
1 306 520 0 308 303 309 0 +-.159322465717758 .11303 .117822298668571 0 1 0 0 0 1
 .003 16 308 388 0 ?310 305 311 306 0 0 1 31 309 519 0 311 306 312 0 +-.15932246
5717758 .09303 .117822298668571 0 1 0 0 0 1 .003 16 311 385 0 ?313 308 314 309 0
 0 1 31 312 518 0 314 309 315 0 +-.0454503723314891 .11303 .1152516725490412 0 1
 0 0 0 1 .003 16 314 370 0 ?316 311 317 312 0 0 1 31 315 517 0 317 312 318 0 +-.
0454503723314891 .09303 .1152516725490412 0 1 0 0 0 1 .003 16 317 367 0 ?319 314
 320 315 0 0 1 31 318 516 0 320 315 321 0 +.143753799676271 .11303 .114029801923
3484 0 1 0 0 0 1 .003 16 320 352 0 ?322 317 323 318 0 0 1 31 321 515 0 323 318 3
24 0 +.143753799676271 .09303 .1140298019233484 0 1 0 0 0 1 .003 16 323 349 0 ?3
25 320 326 321 0 0 1 31 324 514 0 326 321 327 0 +.1265470157298004 .11303 .09003
63963788493 0 1 0 0 0 1 .003 16 326 334 0 ?328 323 329 324 0 0 1 31 327 513 0 32
9 324 330 0 +.1265470157298004 .09303 .0900363963788493 0 1 0 0 0 1 .003 16 329
 331 0 ?331 326 332 327 0 0 1 31 330 512 0 332 327 333 0 +.1636037392526585 .113
03 -.000788099456570386 0 1 0 0 0 1 .003 16 332 316 0 ?334 329 281 330 0 0 1 31
 333 511 0 281 330 74 0 +.1636037392526585 .09303 -.000788099456570386 0 1 0 0 0
 1 .003 16 281 313 0 ?335 332 278 333 0 0 1 30 74 5 0 28 333 63 0 +.1875 .11303
 -.17 0 0 -1 16 28 4 0 ?27 58 80 74 0 0 1 17 335 0 226 335 335 0 336 281 0 0 +15
 226 326 0 335 218 0 17 336 0 219 336 336 0 335 281 0 0 -15 219 322 0 336 211 33
7 15 337 323 0 334 211 0 17 334 0 337 334 334 0 338 332 0 0 +17 338 0 339 338 33
8 0 334 332 0 0 -15 339 234 0 338 60 340 15 340 228 0 341 60 342 17 341 0 340 34
1 341 0 328 326 0 0 -15 342 222 0 343 60 344 17 343 0 342 343 343 0 322 320 0 0
 -15 344 216 0 345 60 346 17 345 0 344 345 345 0 316 314 0 0 -15 346 210 0 347 6
0 348 17 347 0 346 347 347 0 310 308 0 0 -15 348 204 0 349 60 350 17 349 0 348 3
49 349 0 304 302 0 0 -15 350 198 0 351 60 352 17 351 0 350 351 351 0 298 296 0 0
 -15 352 192 0 353 60 59 17 353 0 352 353 353 0 292 275 0 0 -17 292 0 354 292 29
2 0 353 275 0 0 +15 354 449 0 292 114 0 17 298 0 355 298 298 0 351 296 0 0 +15 3
55 431 0 298 127 0 17 304 0 356 304 304 0 349 302 0 0 +15 356 413 0 304 141 0 17
 310 0 357 310 310 0 347 308 0 0 +15 357 395 0 310 155 0 17 316 0 358 316 316 0
 345 314 0 0 +15 358 377 0 316 169 0 17 322 0 359 322 322 0 343 320 0 0 +15 359
 359 0 322 183 0 17 328 0 360 328 328 0 341 326 0 0 +15 360 341 0 328 197 0 17 3
31 0 212 331 331 0 361 329 0 0 +15 212 344 0 331 204 0 17 361 0 205 361 361 0 33
1 329 0 0 -15 205 340 0 361 197 360 17 325 0 198 325 325 0 362 323 0 0 +15 198 3
62 0 325 190 0 17 362 0 191 362 362 0 325 323 0 0 -15 191 358 0 362 183 359 17 3
19 0 184 319 319 0 363 317 0 0 +15 184 380 0 319 176 0 17 363 0 177 363 363 0 31
9 317 0 0 -15 177 376 0 363 169 358 17 313 0 170 313 313 0 364 311 0 0 +15 170 3
98 0 313 162 0 17 364 0 163 364 364 0 313 311 0 0 -15 163 394 0 364 155 357 17 3
07 0 156 307 307 0 365 305 0 0 +15 156 416 0 307 148 0 17 365 0 149 365 365 0 30
7 305 0 0 -15 149 412 0 365 141 356 17 301 0 142 301 301 0 366 299 0 0 +15 142 4
34 0 301 134 0 17 366 0 135 366 366 0 301 299 0 0 -15 135 430 0 366 127 355 17 2
95 0 128 295 295 0 367 293 0 0 +15 128 452 0 295 120 0 17 367 0 121 367 367 0 29
5 293 0 0 -15 121 448 0 367 114 354 17 290 0 254 290 290 0 368 288 0 0 +15 254 2
90 0 290 246 0 17 368 0 247 368 368 0 290 288 0 0 -15 247 286 0 368 239 369 15 3
69 287 0 287 239 0 17 287 0 369 287 287 0 370 285 0 0 +17 370 0 371 370 370 0 28
7 285 0 0 -15 371 246 0 370 60 372 15 372 240 0 373 60 339 17 373 0 372 373 373
 0 280 278 0 0 -17 280 0 374 280 280 0 373 278 0 0 +15 374 305 0 280 225 0 17 28
4 0 240 284 284 0 375 282 0 0 +15 240 308 0 284 232 0 17 375 0 233 375 375 0 284
 282 0 0 -15 233 304 0 375 225 374 17 274 0 376 274 274 0 377 272 0 0 +15 376 26
7 0 274 253 0 17 377 0 94 377 377 0 274 272 0 0 -15 94 252 0 377 60 371 15 261 2
66 0 271 253 376 83 3 264 .898039215686275 .917647058823529 .929411764705882 83
 3 257 .898039215686275 .917647058823529 .929411764705882 83 3 250 .898039215686
275 .917647058823529 .929411764705882 83 3 243 .898039215686275 .917647058823529
 .929411764705882 83 3 236 .898039215686275 .917647058823529 .929411764705882 83
 3 229 .898039215686275 .917647058823529 .929411764705882 83 3 222 .898039215686
275 .917647058823529 .929411764705882 83 3 215 .898039215686275 .917647058823529
 .929411764705882 83 3 208 .898039215686275 .917647058823529 .929411764705882 83
 3 201 .898039215686275 .917647058823529 .929411764705882 83 3 194 .898039215686
275 .917647058823529 .929411764705882 83 3 187 .898039215686275 .917647058823529
 .929411764705882 83 3 180 .898039215686275 .917647058823529 .929411764705882 83
 3 173 .898039215686275 .917647058823529 .929411764705882 83 3 166 .898039215686
275 .917647058823529 .929411764705882 83 3 159 .898039215686275 .917647058823529
 .929411764705882 83 3 152 .898039215686275 .917647058823529 .929411764705882 83
 3 145 .898039215686275 .917647058823529 .929411764705882 83 3 138 .898039215686
275 .917647058823529 .929411764705882 83 3 131 .898039215686275 .917647058823529
 .929411764705882 83 3 124 .898039215686275 .917647058823529 .929411764705882 81
 1 115 646 108 60 0 92 91 111 378 83 3 117 .898039215686275 .917647058823529 .92
9411764705882 81 1 92 731 90 60 115 0 88 96 379 81 1 91 645 108 87 0 88 109 115
 380 83 3 378 .898039215686275 .917647058823529 .929411764705882 81 1 109 644 10
8 83 0 96 103 91 381 83 3 380 .898039215686275 .917647058823529 .929411764705882
 81 1 96 732 90 83 109 0 92 99 382 83 3 381 .898039215686275 .917647058823529 .9
29411764705882 82 1 382 80674995 82 1 379 71106742 81 1 100 642 108 12 0 99 0 10
3 383 83 3 110 .898039215686275 .917647058823529 .929411764705882 83 3 383 .8980
39215686275 .917647058823529 .929411764705882 79 14 107 SWEntUnchanged82 1 102 8
1461427 82 1 93 80412851 17 29 0 59 27 30 10 69 70 0 50 +19 13 135 0 1 0 8 4 S0
 74 4 CI16 index_map_offset0 0 1 dCCZ20 11 2 0 0 258 263 0 0 0 0 0 0 0 0 0 0 0 0
 0 0 0 0 0 0 1 0 
